<svg width="95" height="101" viewBox="0 0 95 101" fill="none" xmlns="http://www.w3.org/2000/svg">
<path d="M16.8209 70.2544C16.6726 70.1868 16.5128 70.1499 16.3506 70.1459C16.1884 70.1418 16.027 70.1707 15.8757 70.2308C15.7244 70.2908 15.586 70.381 15.4686 70.4961C15.3512 70.6111 15.257 70.7489 15.1915 70.9014L9.1057 84.9828C8.9731 85.2907 8.96494 85.64 9.08301 85.9541C9.20107 86.2681 9.4357 86.5211 9.73526 86.6574C10.0348 86.7936 10.3748 86.802 10.6804 86.6807C10.986 86.5593 11.2321 86.3182 11.3647 86.0104L17.4628 71.9162C17.591 71.6083 17.5955 71.2607 17.4752 70.9493C17.3549 70.638 17.1197 70.3882 16.8209 70.2544ZM25.9681 70.2544C25.8198 70.1868 25.66 70.1499 25.4978 70.1459C25.3356 70.1418 25.1742 70.1707 25.0229 70.2308C24.8715 70.2908 24.7332 70.381 24.6158 70.4961C24.4984 70.6111 24.4042 70.7489 24.3386 70.9014L12.1794 99.0896C12.1138 99.242 12.078 99.4063 12.0741 99.5729C12.0702 99.7396 12.0983 99.9054 12.1568 100.061C12.2152 100.216 12.3029 100.359 12.4148 100.479C12.5267 100.6 12.6607 100.697 12.809 100.764C12.9573 100.832 13.1171 100.868 13.2793 100.872C13.4415 100.876 13.6028 100.848 13.7541 100.787C13.9054 100.727 14.0437 100.637 14.1612 100.522C14.2786 100.407 14.3728 100.27 14.4385 100.117L26.6347 71.9289C26.6993 71.7742 26.7334 71.6078 26.7348 71.4394C26.7362 71.271 26.705 71.1039 26.6429 70.9481C26.5809 70.7922 26.4893 70.6506 26.3734 70.5315C26.2575 70.4124 26.1198 70.3182 25.9681 70.2544ZM44.2748 70.2544C44.1265 70.1868 43.9666 70.1499 43.8045 70.1459C43.6423 70.1418 43.4809 70.1707 43.3296 70.2308C43.1782 70.2908 43.0399 70.381 42.9225 70.4961C42.8051 70.6111 42.7109 70.7489 42.6453 70.9014L30.4368 99.0896C30.3711 99.242 30.3353 99.4063 30.3314 99.5729C30.3275 99.7396 30.3556 99.9054 30.4141 100.061C30.4725 100.216 30.5602 100.359 30.6721 100.479C30.784 100.6 30.918 100.697 31.0663 100.764C31.2146 100.832 31.3745 100.868 31.5366 100.872C31.6988 100.876 31.8601 100.848 32.0114 100.787C32.1627 100.727 32.3011 100.637 32.4185 100.522C32.5359 100.407 32.6301 100.27 32.6958 100.117L44.892 71.9289C45.0256 71.6227 45.0356 71.2745 44.92 70.9606C44.8043 70.6468 44.5723 70.3928 44.2748 70.2544ZM35.1153 70.2544C34.967 70.1868 34.8071 70.1499 34.6449 70.1459C34.4827 70.1418 34.3214 70.1707 34.17 70.2308C34.0187 70.2908 33.8804 70.381 33.763 70.4961C33.6456 70.6111 33.5514 70.7489 33.4858 70.9014L27.3877 84.9828C27.2551 85.2907 27.2469 85.64 27.365 85.9541C27.4831 86.2681 27.7177 86.5211 28.0173 86.6574C28.3168 86.7936 28.6568 86.802 28.9624 86.6807C29.268 86.5593 29.5141 86.3182 29.6467 86.0104L35.7448 71.9162C35.8738 71.6098 35.88 71.2635 35.7622 70.9524C35.6443 70.6414 35.4119 70.3905 35.1153 70.2544V70.2544Z" fill="#B3E5FC"/>
<path d="M51.1443 53.4209C50.9933 53.3759 50.8321 53.3559 50.67 53.362C50.5079 53.368 50.348 53.4 50.1995 53.4562C50.051 53.5123 49.9167 53.5915 49.8045 53.6892C49.6922 53.7868 49.6041 53.901 49.5452 54.0253L44.076 65.5031C43.9569 65.754 43.9638 66.0306 44.0952 66.2721C44.2266 66.5135 44.4718 66.7001 44.7768 66.7907C45.0817 66.8813 45.4215 66.8685 45.7214 66.7551C46.0213 66.6417 46.2567 66.4371 46.3758 66.1862L51.8568 54.6977C51.9715 54.447 51.961 54.172 51.8275 53.9328C51.694 53.6936 51.4484 53.5095 51.1443 53.4209ZM60.2772 52.8983C60.1262 52.8533 59.965 52.8333 59.8029 52.8394C59.6408 52.8455 59.4809 52.8775 59.3324 52.9336C59.1839 52.9897 59.0497 53.0689 58.9374 53.1666C58.8252 53.2642 58.7371 53.3785 58.6782 53.5028L47.7531 76.4776C47.6941 76.6018 47.6655 76.7337 47.6688 76.8656C47.6721 76.9975 47.7073 77.127 47.7723 77.2466C47.8374 77.3661 47.9311 77.4735 48.048 77.5624C48.165 77.6514 48.3029 77.7203 48.4539 77.7652C48.6049 77.81 48.766 77.83 48.9281 77.8239C49.0902 77.8178 49.2501 77.7857 49.3985 77.7296C49.547 77.6735 49.6812 77.5943 49.7935 77.4967C49.9058 77.3991 49.9939 77.2849 50.0529 77.1607L61.0149 54.1838C61.0728 54.0578 61.0996 53.9243 61.0938 53.7911C61.0879 53.6579 61.0495 53.5277 60.9809 53.408C60.9122 53.2884 60.8146 53.1817 60.6938 53.0941C60.573 53.0066 60.4314 52.94 60.2772 52.8983ZM78.5554 51.8524C78.4044 51.8075 78.2432 51.7875 78.0811 51.7935C77.919 51.7996 77.7591 51.8316 77.6106 51.8877C77.4621 51.9439 77.3279 52.023 77.2156 52.1207C77.1033 52.2184 77.0152 52.3326 76.9563 52.4569L65.982 75.4345C65.923 75.5588 65.8944 75.6906 65.8977 75.8226C65.901 75.9545 65.9361 76.0839 66.0012 76.2035C66.0663 76.3231 66.16 76.4304 66.2769 76.5194C66.3939 76.6084 66.5318 76.6773 66.6828 76.7221C66.8338 76.767 66.9949 76.7869 67.157 76.7808C67.3191 76.7747 67.4789 76.7427 67.6274 76.6866C67.7759 76.6304 67.9101 76.5513 68.0224 76.4537C68.1347 76.3561 68.2228 76.2419 68.2818 76.1177L79.2438 53.1407C79.364 52.891 79.359 52.6152 79.23 52.3738C79.101 52.1323 78.8584 51.9448 78.5554 51.8524ZM69.4101 52.3757C69.2591 52.3308 69.098 52.3107 68.9358 52.3168C68.7737 52.3229 68.6138 52.3549 68.4653 52.411C68.3168 52.4672 68.1826 52.5463 68.0703 52.644C67.9581 52.7416 67.87 52.8559 67.8111 52.9802L62.3295 64.4586C62.2104 64.7095 62.2173 64.9861 62.3488 65.2276C62.4802 65.4691 62.7253 65.6556 63.0303 65.7462C63.3353 65.8368 63.6751 65.824 63.975 65.7107C64.2748 65.5973 64.5102 65.3926 64.6293 65.1417L70.1103 53.6533C70.2259 53.4037 70.2172 53.1297 70.0861 52.8905C69.955 52.6513 69.7121 52.4664 69.4101 52.3757Z" fill="#B3E5FC"/>
<path d="M85.4637 31.9284C85.1613 26.9541 83.032 22.2854 79.5091 18.8724C75.9862 15.4593 71.3343 13.5583 66.5 13.556C65.6106 13.556 64.7222 13.6194 63.8413 13.7457C61.8369 9.76012 58.8107 6.41754 55.0921 4.0816C51.3734 1.74565 47.1046 0.50581 42.75 0.496948C42.5057 0.496948 42.2421 0.498581 42.0736 0.513272C37.2769 0.638163 32.6308 2.26536 28.7528 5.17853C24.8748 8.0917 21.9488 12.1528 20.3638 16.822C17.044 16.8855 13.8809 18.2887 11.5536 20.7302C9.22635 23.1717 7.92056 26.4568 7.9167 29.8799C7.91695 30.3796 7.94534 30.8789 8.00172 31.3752C5.61069 32.5914 3.59553 34.4703 2.18219 36.8011C0.76886 39.1319 0.0132325 41.8226 3.44808e-05 44.5714C-0.00552298 47.1579 0.660809 49.6987 1.9298 51.9299C2.06957 52.1746 2.26892 52.3775 2.50811 52.5184C2.7473 52.6593 3.01803 52.7334 3.29352 52.7333H21.1534C21.5305 52.7333 21.8953 52.5945 22.182 52.3419C22.4688 52.0892 22.6586 51.7394 22.7174 51.3553C23.1743 48.381 24.6456 45.6725 26.8667 43.7168C29.0877 41.7611 31.9127 40.6866 34.8335 40.6866C37.7543 40.6866 40.5793 41.7611 42.8004 43.7168C45.0214 45.6725 46.4927 48.381 46.9496 51.3553C47.0084 51.7394 47.1982 52.0892 47.485 52.3419C47.7717 52.5945 48.1365 52.7333 48.5137 52.7333H91.422C91.6767 52.7334 91.9276 52.6701 92.1535 52.5489C92.3793 52.4276 92.5735 52.2518 92.7194 52.0366C94.2074 49.8499 95.0039 47.2426 95 44.5714C94.9895 41.6737 94.0479 38.8612 92.3225 36.5737C90.5972 34.2862 88.1852 32.6527 85.4637 31.9284Z" fill="#9CD5F2"/>
<path fill-rule="evenodd" clip-rule="evenodd" d="M69.9974 85.3608C69.9229 85.1978 69.7878 85.0732 69.616 85.0106C69.4448 84.9473 69.2574 84.9541 69.0888 85.0286L64.8839 86.9528L61.6827 85.8095L64.31 83.652L68.9283 84.0442C69.3059 84.0627 69.6276 83.7926 69.6603 83.4302C69.6784 83.2491 69.623 83.0731 69.5046 82.9345C69.3862 82.7958 69.2214 82.7125 69.0419 82.6993L65.8071 82.4232L68.5167 80.2007C68.8023 79.9556 68.8394 79.541 68.6 79.2566C68.3596 78.9709 67.924 78.9326 67.6309 79.1713L64.9307 81.3908L65.2321 78.211C65.248 78.0331 65.1891 77.8535 65.0718 77.7175C64.953 77.5803 64.7876 77.4978 64.6059 77.4842C64.2353 77.4569 63.9024 77.7317 63.864 78.0978L63.4343 82.6195L60.807 84.777L60.2329 81.4755L62.9079 77.753C63.1211 77.4503 63.0475 77.0307 62.7437 76.8165C62.5937 76.7126 62.411 76.6727 62.2293 76.7043C62.0483 76.7358 61.8904 76.8349 61.7842 76.9826L59.9063 79.5966L59.3158 76.2007C59.2523 75.8356 58.8957 75.5909 58.5214 75.656C58.1484 75.7209 57.8973 76.0711 57.9608 76.4363L58.5513 79.8322L55.902 78.0061C55.7521 77.9021 55.5693 77.8623 55.3876 77.8939C55.2067 77.9254 55.0482 78.0252 54.9403 78.1754C54.7278 78.4779 54.8021 78.8975 55.1059 79.1116L58.878 81.7111L59.452 85.0126L56.25 83.8687L54.3179 79.7534C54.1593 79.4243 53.754 79.2793 53.4144 79.4301C53.0689 79.5833 52.9149 79.9862 53.0701 80.3284L54.4275 83.2177L51.1315 82.0394C50.7752 81.9143 50.3879 82.0929 50.2496 82.4472C50.1199 82.7979 50.2992 83.177 50.6584 83.3099L53.9508 84.4846L51.0051 85.8339C50.8378 85.9075 50.7092 86.0404 50.6442 86.2089C50.5785 86.3774 50.5848 86.5689 50.662 86.7356C50.794 87.0095 51.0972 87.1633 51.3993 87.1108C51.4564 87.1008 51.511 87.0844 51.5731 87.0583L55.7714 85.1366L58.9755 86.2802L56.348 88.437L51.7419 88.0454C51.5608 88.031 51.376 88.0896 51.2369 88.2069C51.0989 88.3227 51.012 88.4873 50.9988 88.6565C50.9798 88.8364 51.0344 89.0118 51.1523 89.1519C51.2691 89.2894 51.438 89.3762 51.617 89.3903L54.8517 89.6657L52.1453 91.8862C51.8557 92.1292 51.817 92.5545 52.0588 92.8322C52.2169 93.0196 52.4588 93.1062 52.7051 93.0633C52.8235 93.0428 52.9346 92.9928 53.0279 92.9175L55.7307 90.6969L55.4293 93.8725C55.4108 94.0516 55.4662 94.2276 55.5847 94.3669C55.7006 94.5032 55.8634 94.5875 56.0406 94.6033C56.1021 94.6107 56.1634 94.6084 56.2288 94.597C56.5288 94.5448 56.7628 94.2963 56.7982 93.9904L57.2243 89.4687L59.8518 87.3119L60.4258 90.6134L57.7553 94.333C57.5361 94.6381 57.6094 95.0592 57.9187 95.2724C58.0685 95.3757 58.2505 95.4156 58.4329 95.3839C58.6145 95.3517 58.7718 95.2534 58.8773 95.1057L60.7526 92.4929L61.343 95.8882C61.4066 96.254 61.7623 96.498 62.1367 96.4329C62.5097 96.3681 62.7615 96.0184 62.6979 95.6526L62.1075 92.2566L64.7559 94.0822C64.906 94.1868 65.0888 94.2267 65.269 94.1953C65.4521 94.1635 65.6107 94.0643 65.7155 93.9168C65.9347 93.6117 65.8614 93.1905 65.5521 92.9773L61.7808 90.3778L61.2069 87.077L64.4086 88.223L66.3384 92.3372C66.4708 92.6097 66.7741 92.7635 67.0762 92.7109C67.1408 92.6997 67.1993 92.6812 67.2528 92.6545C67.417 92.5794 67.5419 92.4457 67.6051 92.279C67.6693 92.11 67.662 91.9215 67.5852 91.761L66.229 88.8743L69.5261 90.0511C69.6393 90.0905 69.7601 90.1001 69.8757 90.08C70.12 90.0375 70.3172 89.8753 70.4048 89.6452C70.5362 89.2997 70.3552 88.9113 70.0004 88.779L66.7079 87.6042L69.6571 86.2543C69.8248 86.1786 69.9522 86.0431 70.0167 85.8719C70.0796 85.7032 70.0727 85.5167 69.9974 85.3608" fill="#4FB4ED"/>
<path fill-rule="evenodd" clip-rule="evenodd" d="M91.9974 66.3608C91.9229 66.1978 91.7878 66.0732 91.616 66.0106C91.4448 65.9473 91.2574 65.9541 91.0888 66.0286L86.8839 67.9528L83.6827 66.8095L86.31 64.652L90.9283 65.0442C91.3059 65.0627 91.6276 64.7926 91.6603 64.4302C91.6784 64.2491 91.623 64.0731 91.5046 63.9345C91.3862 63.7958 91.2214 63.7125 91.0419 63.6993L87.8071 63.4232L90.5167 61.2007C90.8023 60.9556 90.8394 60.541 90.6 60.2566C90.3596 59.9709 89.924 59.9326 89.6309 60.1713L86.9307 62.3908L87.2321 59.211C87.248 59.0331 87.1891 58.8535 87.0718 58.7175C86.953 58.5803 86.7876 58.4978 86.6059 58.4842C86.2353 58.4569 85.9024 58.7317 85.864 59.0978L85.4343 63.6195L82.807 65.777L82.2329 62.4755L84.9079 58.753C85.1211 58.4503 85.0475 58.0307 84.7437 57.8165C84.5937 57.7126 84.411 57.6727 84.2293 57.7043C84.0483 57.7358 83.8904 57.8349 83.7842 57.9826L81.9063 60.5966L81.3158 57.2007C81.2523 56.8356 80.8957 56.5909 80.5214 56.656C80.1484 56.7209 79.8973 57.0711 79.9608 57.4363L80.5513 60.8322L77.902 59.0061C77.7521 58.9021 77.5693 58.8623 77.3876 58.8939C77.2067 58.9254 77.0482 59.0252 76.9403 59.1754C76.7278 59.4779 76.8021 59.8975 77.1059 60.1116L80.878 62.7111L81.452 66.0126L78.25 64.8687L76.3179 60.7534C76.1593 60.4243 75.754 60.2793 75.4144 60.4301C75.0689 60.5833 74.9149 60.9862 75.0701 61.3284L76.4275 64.2177L73.1315 63.0394C72.7752 62.9143 72.3879 63.0929 72.2496 63.4472C72.1199 63.7979 72.2992 64.177 72.6584 64.3099L75.9508 65.4846L73.0051 66.8339C72.8378 66.9075 72.7092 67.0404 72.6442 67.2089C72.5785 67.3774 72.5848 67.5689 72.662 67.7356C72.794 68.0095 73.0972 68.1633 73.3993 68.1108C73.4564 68.1008 73.511 68.0844 73.5731 68.0583L77.7714 66.1366L80.9755 67.2802L78.348 69.437L73.7419 69.0454C73.5608 69.031 73.376 69.0896 73.2369 69.2069C73.0989 69.3227 73.012 69.4873 72.9988 69.6565C72.9798 69.8364 73.0344 70.0118 73.1523 70.1519C73.2691 70.2894 73.438 70.3762 73.617 70.3903L76.8517 70.6657L74.1453 72.8862C73.8557 73.1292 73.817 73.5545 74.0588 73.8322C74.2169 74.0196 74.4588 74.1062 74.7051 74.0633C74.8235 74.0428 74.9346 73.9928 75.0279 73.9175L77.7307 71.6969L77.4293 74.8725C77.4108 75.0516 77.4662 75.2276 77.5847 75.3669C77.7006 75.5032 77.8634 75.5875 78.0406 75.6033C78.1021 75.6107 78.1634 75.6084 78.2288 75.597C78.5288 75.5448 78.7628 75.2963 78.7982 74.9904L79.2243 70.4687L81.8518 68.3119L82.4258 71.6134L79.7553 75.333C79.5361 75.6381 79.6094 76.0592 79.9187 76.2724C80.0685 76.3757 80.2505 76.4156 80.4329 76.3839C80.6145 76.3517 80.7718 76.2534 80.8773 76.1057L82.7526 73.4929L83.343 76.8882C83.4066 77.254 83.7623 77.498 84.1367 77.4329C84.5097 77.3681 84.7615 77.0184 84.6979 76.6526L84.1075 73.2566L86.7559 75.0822C86.906 75.1868 87.0888 75.2267 87.269 75.1953C87.4521 75.1635 87.6107 75.0643 87.7155 74.9168C87.9347 74.6117 87.8614 74.1905 87.5521 73.9773L83.7808 71.3778L83.2069 68.077L86.4086 69.223L88.3384 73.3372C88.4708 73.6097 88.7741 73.7635 89.0762 73.7109C89.1408 73.6997 89.1993 73.6812 89.2528 73.6545C89.417 73.5794 89.5419 73.4457 89.6051 73.279C89.6693 73.11 89.662 72.9215 89.5852 72.761L88.229 69.8743L91.5261 71.0511C91.6393 71.0905 91.7601 71.1001 91.8757 71.08C92.12 71.0375 92.3172 70.8753 92.4048 70.6452C92.5362 70.2997 92.3552 69.9113 92.0004 69.779L88.7079 68.6042L91.6571 67.2543C91.8248 67.1786 91.9522 67.0431 92.0167 66.8719C92.0796 66.7032 92.0727 66.5167 91.9974 66.3608" fill="#4FB4ED"/>
<path d="M50.7543 52.8648C50.7252 52.2819 50.6682 51.7011 50.5837 51.1244C50.0152 47.2896 48.1834 43.7973 45.4179 41.2758C42.6524 38.7543 39.1348 37.3692 35.4979 37.3698C31.8611 37.3703 28.3438 38.7563 25.579 41.2786C22.8141 43.8008 20.9831 47.2936 20.4155 51.1286C20.3316 51.7039 20.2749 52.2834 20.2457 52.8648C17.8309 53.796 15.7437 55.499 14.2682 57.7422C12.7927 59.9853 12.0007 62.6593 12 65.4003C12 65.8438 12.1651 66.2693 12.4589 66.5829C12.7527 66.8966 13.1512 67.0728 13.5667 67.0728H57.4333C57.8488 67.0728 58.2473 66.8966 58.5411 66.5829C58.8349 66.2693 59 65.8438 59 65.4003C58.9993 62.6593 58.2073 59.9853 56.7318 57.7422C55.2563 55.499 53.1691 53.796 50.7543 52.8648Z" fill="#B2EBF2"/>
</svg>
