<svg width="320" height="320" viewBox="0 0 320 320" fill="none" xmlns="http://www.w3.org/2000/svg">
<circle cx="160" cy="160" r="160" fill="#F0D387"/>
<path d="M61.9531 131.25L67.2344 142.109L72.5156 131.25H76.8594L69.2031 145.625V154H65.25V145.625L57.5938 131.25H61.9531ZM77.7188 145.734V145.375C77.7188 144.156 77.8958 143.026 78.25 141.984C78.6042 140.932 79.1146 140.021 79.7812 139.25C80.4583 138.469 81.2812 137.865 82.25 137.438C83.2292 137 84.3333 136.781 85.5625 136.781C86.8021 136.781 87.9062 137 88.875 137.438C89.8542 137.865 90.6823 138.469 91.3594 139.25C92.0365 140.021 92.5521 140.932 92.9062 141.984C93.2604 143.026 93.4375 144.156 93.4375 145.375V145.734C93.4375 146.953 93.2604 148.083 92.9062 149.125C92.5521 150.167 92.0365 151.078 91.3594 151.859C90.6823 152.63 89.8594 153.234 88.8906 153.672C87.9219 154.099 86.8229 154.312 85.5938 154.312C84.3542 154.312 83.2448 154.099 82.2656 153.672C81.2969 153.234 80.474 152.63 79.7969 151.859C79.1198 151.078 78.6042 150.167 78.25 149.125C77.8958 148.083 77.7188 146.953 77.7188 145.734ZM81.4844 145.375V145.734C81.4844 146.495 81.5625 147.214 81.7188 147.891C81.875 148.568 82.1198 149.161 82.4531 149.672C82.7865 150.182 83.2135 150.583 83.7344 150.875C84.2552 151.167 84.875 151.312 85.5938 151.312C86.2917 151.312 86.8958 151.167 87.4062 150.875C87.9271 150.583 88.3542 150.182 88.6875 149.672C89.0208 149.161 89.2656 148.568 89.4219 147.891C89.5885 147.214 89.6719 146.495 89.6719 145.734V145.375C89.6719 144.625 89.5885 143.917 89.4219 143.25C89.2656 142.573 89.0156 141.974 88.6719 141.453C88.3385 140.932 87.9115 140.526 87.3906 140.234C86.8802 139.932 86.2708 139.781 85.5625 139.781C84.8542 139.781 84.2396 139.932 83.7188 140.234C83.2083 140.526 82.7865 140.932 82.4531 141.453C82.1198 141.974 81.875 142.573 81.7188 143.25C81.5625 143.917 81.4844 144.625 81.4844 145.375ZM107.266 150.016V137.094H111.047V154H107.484L107.266 150.016ZM107.797 146.5L109.062 146.469C109.062 147.604 108.938 148.651 108.688 149.609C108.438 150.557 108.052 151.385 107.531 152.094C107.01 152.792 106.344 153.339 105.531 153.734C104.719 154.12 103.745 154.312 102.609 154.312C101.786 154.312 101.031 154.193 100.344 153.953C99.6562 153.714 99.0625 153.344 98.5625 152.844C98.0729 152.344 97.6927 151.693 97.4219 150.891C97.151 150.089 97.0156 149.13 97.0156 148.016V137.094H100.781V148.047C100.781 148.661 100.854 149.177 101 149.594C101.146 150 101.344 150.328 101.594 150.578C101.844 150.828 102.135 151.005 102.469 151.109C102.802 151.214 103.156 151.266 103.531 151.266C104.604 151.266 105.448 151.057 106.062 150.641C106.688 150.214 107.13 149.641 107.391 148.922C107.661 148.203 107.797 147.396 107.797 146.5ZM118.984 130V132.203C118.984 132.859 118.865 133.542 118.625 134.25C118.396 134.948 118.073 135.62 117.656 136.266C117.24 136.901 116.76 137.453 116.219 137.922L114.328 136.734C114.755 136.089 115.099 135.406 115.359 134.688C115.63 133.958 115.766 133.141 115.766 132.234V130H118.984ZM126.594 140.312V154H122.828V137.094H126.422L126.594 140.312ZM131.766 136.984L131.734 140.484C131.505 140.443 131.255 140.411 130.984 140.391C130.724 140.37 130.464 140.359 130.203 140.359C129.557 140.359 128.99 140.453 128.5 140.641C128.01 140.818 127.599 141.078 127.266 141.422C126.943 141.755 126.693 142.161 126.516 142.641C126.339 143.12 126.234 143.656 126.203 144.25L125.344 144.312C125.344 143.25 125.448 142.266 125.656 141.359C125.865 140.453 126.177 139.656 126.594 138.969C127.021 138.281 127.552 137.745 128.188 137.359C128.833 136.974 129.578 136.781 130.422 136.781C130.651 136.781 130.896 136.802 131.156 136.844C131.427 136.885 131.63 136.932 131.766 136.984ZM141.766 154.312C140.516 154.312 139.385 154.109 138.375 153.703C137.375 153.286 136.521 152.708 135.812 151.969C135.115 151.229 134.578 150.359 134.203 149.359C133.828 148.359 133.641 147.281 133.641 146.125V145.5C133.641 144.177 133.833 142.979 134.219 141.906C134.604 140.833 135.141 139.917 135.828 139.156C136.516 138.385 137.328 137.797 138.266 137.391C139.203 136.984 140.219 136.781 141.312 136.781C142.521 136.781 143.578 136.984 144.484 137.391C145.391 137.797 146.141 138.37 146.734 139.109C147.339 139.839 147.786 140.708 148.078 141.719C148.38 142.729 148.531 143.844 148.531 145.062V146.672H135.469V143.969H144.812V143.672C144.792 142.995 144.656 142.359 144.406 141.766C144.167 141.172 143.797 140.693 143.297 140.328C142.797 139.964 142.13 139.781 141.297 139.781C140.672 139.781 140.115 139.917 139.625 140.188C139.146 140.448 138.745 140.828 138.422 141.328C138.099 141.828 137.849 142.432 137.672 143.141C137.505 143.839 137.422 144.625 137.422 145.5V146.125C137.422 146.865 137.521 147.552 137.719 148.188C137.927 148.812 138.229 149.359 138.625 149.828C139.021 150.297 139.5 150.667 140.062 150.938C140.625 151.198 141.266 151.328 141.984 151.328C142.891 151.328 143.698 151.146 144.406 150.781C145.115 150.417 145.729 149.901 146.25 149.234L148.234 151.156C147.87 151.688 147.396 152.198 146.812 152.688C146.229 153.167 145.516 153.557 144.672 153.859C143.839 154.161 142.87 154.312 141.766 154.312ZM169.922 149.422C169.922 149.047 169.828 148.708 169.641 148.406C169.453 148.094 169.094 147.812 168.562 147.562C168.042 147.312 167.271 147.083 166.25 146.875C165.354 146.677 164.531 146.443 163.781 146.172C163.042 145.891 162.406 145.552 161.875 145.156C161.344 144.76 160.932 144.292 160.641 143.75C160.349 143.208 160.203 142.583 160.203 141.875C160.203 141.188 160.354 140.536 160.656 139.922C160.958 139.307 161.391 138.766 161.953 138.297C162.516 137.828 163.198 137.458 164 137.188C164.812 136.917 165.719 136.781 166.719 136.781C168.135 136.781 169.349 137.021 170.359 137.5C171.38 137.969 172.161 138.609 172.703 139.422C173.245 140.224 173.516 141.13 173.516 142.141H169.75C169.75 141.693 169.635 141.276 169.406 140.891C169.188 140.495 168.854 140.177 168.406 139.938C167.958 139.688 167.396 139.562 166.719 139.562C166.073 139.562 165.536 139.667 165.109 139.875C164.693 140.073 164.38 140.333 164.172 140.656C163.974 140.979 163.875 141.333 163.875 141.719C163.875 142 163.927 142.255 164.031 142.484C164.146 142.703 164.333 142.906 164.594 143.094C164.854 143.271 165.208 143.438 165.656 143.594C166.115 143.75 166.688 143.901 167.375 144.047C168.667 144.318 169.776 144.667 170.703 145.094C171.641 145.51 172.359 146.052 172.859 146.719C173.359 147.375 173.609 148.208 173.609 149.219C173.609 149.969 173.448 150.656 173.125 151.281C172.812 151.896 172.354 152.432 171.75 152.891C171.146 153.339 170.422 153.688 169.578 153.938C168.745 154.188 167.807 154.312 166.766 154.312C165.234 154.312 163.938 154.042 162.875 153.5C161.812 152.948 161.005 152.245 160.453 151.391C159.911 150.526 159.641 149.63 159.641 148.703H163.281C163.323 149.401 163.516 149.958 163.859 150.375C164.214 150.781 164.651 151.078 165.172 151.266C165.703 151.443 166.25 151.531 166.812 151.531C167.49 151.531 168.057 151.443 168.516 151.266C168.974 151.078 169.323 150.828 169.562 150.516C169.802 150.193 169.922 149.828 169.922 149.422ZM176.688 145.734V145.375C176.688 144.156 176.865 143.026 177.219 141.984C177.573 140.932 178.083 140.021 178.75 139.25C179.427 138.469 180.25 137.865 181.219 137.438C182.198 137 183.302 136.781 184.531 136.781C185.771 136.781 186.875 137 187.844 137.438C188.823 137.865 189.651 138.469 190.328 139.25C191.005 140.021 191.521 140.932 191.875 141.984C192.229 143.026 192.406 144.156 192.406 145.375V145.734C192.406 146.953 192.229 148.083 191.875 149.125C191.521 150.167 191.005 151.078 190.328 151.859C189.651 152.63 188.828 153.234 187.859 153.672C186.891 154.099 185.792 154.312 184.562 154.312C183.323 154.312 182.214 154.099 181.234 153.672C180.266 153.234 179.443 152.63 178.766 151.859C178.089 151.078 177.573 150.167 177.219 149.125C176.865 148.083 176.688 146.953 176.688 145.734ZM180.453 145.375V145.734C180.453 146.495 180.531 147.214 180.688 147.891C180.844 148.568 181.089 149.161 181.422 149.672C181.755 150.182 182.182 150.583 182.703 150.875C183.224 151.167 183.844 151.312 184.562 151.312C185.26 151.312 185.865 151.167 186.375 150.875C186.896 150.583 187.323 150.182 187.656 149.672C187.99 149.161 188.234 148.568 188.391 147.891C188.557 147.214 188.641 146.495 188.641 145.734V145.375C188.641 144.625 188.557 143.917 188.391 143.25C188.234 142.573 187.984 141.974 187.641 141.453C187.307 140.932 186.88 140.526 186.359 140.234C185.849 139.932 185.24 139.781 184.531 139.781C183.823 139.781 183.208 139.932 182.688 140.234C182.177 140.526 181.755 140.932 181.422 141.453C181.089 141.974 180.844 142.573 180.688 143.25C180.531 143.917 180.453 144.625 180.453 145.375ZM199.844 140.312V154H196.078V137.094H199.672L199.844 140.312ZM205.016 136.984L204.984 140.484C204.755 140.443 204.505 140.411 204.234 140.391C203.974 140.37 203.714 140.359 203.453 140.359C202.807 140.359 202.24 140.453 201.75 140.641C201.26 140.818 200.849 141.078 200.516 141.422C200.193 141.755 199.943 142.161 199.766 142.641C199.589 143.12 199.484 143.656 199.453 144.25L198.594 144.312C198.594 143.25 198.698 142.266 198.906 141.359C199.115 140.453 199.427 139.656 199.844 138.969C200.271 138.281 200.802 137.745 201.438 137.359C202.083 136.974 202.828 136.781 203.672 136.781C203.901 136.781 204.146 136.802 204.406 136.844C204.677 136.885 204.88 136.932 205.016 136.984ZM216.406 137.094V139.844H206.875V137.094H216.406ZM209.625 132.953H213.391V149.328C213.391 149.849 213.464 150.25 213.609 150.531C213.766 150.802 213.979 150.984 214.25 151.078C214.521 151.172 214.839 151.219 215.203 151.219C215.464 151.219 215.714 151.203 215.953 151.172C216.193 151.141 216.385 151.109 216.531 151.078L216.547 153.953C216.234 154.047 215.87 154.13 215.453 154.203C215.047 154.276 214.578 154.312 214.047 154.312C213.182 154.312 212.417 154.161 211.75 153.859C211.083 153.547 210.562 153.042 210.188 152.344C209.812 151.646 209.625 150.719 209.625 149.562V132.953ZM227.266 154.312C226.016 154.312 224.885 154.109 223.875 153.703C222.875 153.286 222.021 152.708 221.312 151.969C220.615 151.229 220.078 150.359 219.703 149.359C219.328 148.359 219.141 147.281 219.141 146.125V145.5C219.141 144.177 219.333 142.979 219.719 141.906C220.104 140.833 220.641 139.917 221.328 139.156C222.016 138.385 222.828 137.797 223.766 137.391C224.703 136.984 225.719 136.781 226.812 136.781C228.021 136.781 229.078 136.984 229.984 137.391C230.891 137.797 231.641 138.37 232.234 139.109C232.839 139.839 233.286 140.708 233.578 141.719C233.88 142.729 234.031 143.844 234.031 145.062V146.672H220.969V143.969H230.312V143.672C230.292 142.995 230.156 142.359 229.906 141.766C229.667 141.172 229.297 140.693 228.797 140.328C228.297 139.964 227.63 139.781 226.797 139.781C226.172 139.781 225.615 139.917 225.125 140.188C224.646 140.448 224.245 140.828 223.922 141.328C223.599 141.828 223.349 142.432 223.172 143.141C223.005 143.839 222.922 144.625 222.922 145.5V146.125C222.922 146.865 223.021 147.552 223.219 148.188C223.427 148.812 223.729 149.359 224.125 149.828C224.521 150.297 225 150.667 225.562 150.938C226.125 151.198 226.766 151.328 227.484 151.328C228.391 151.328 229.198 151.146 229.906 150.781C230.615 150.417 231.229 149.901 231.75 149.234L233.734 151.156C233.37 151.688 232.896 152.198 232.312 152.688C231.729 153.167 231.016 153.557 230.172 153.859C229.339 154.161 228.37 154.312 227.266 154.312ZM247.781 150.5V130H251.562V154H248.141L247.781 150.5ZM236.781 145.734V145.406C236.781 144.125 236.932 142.958 237.234 141.906C237.536 140.844 237.974 139.932 238.547 139.172C239.12 138.401 239.818 137.812 240.641 137.406C241.464 136.99 242.391 136.781 243.422 136.781C244.443 136.781 245.339 136.979 246.109 137.375C246.88 137.771 247.536 138.339 248.078 139.078C248.62 139.807 249.052 140.682 249.375 141.703C249.698 142.714 249.927 143.839 250.062 145.078V146.125C249.927 147.333 249.698 148.438 249.375 149.438C249.052 150.438 248.62 151.302 248.078 152.031C247.536 152.76 246.875 153.323 246.094 153.719C245.323 154.115 244.422 154.312 243.391 154.312C242.37 154.312 241.448 154.099 240.625 153.672C239.812 153.245 239.12 152.646 238.547 151.875C237.974 151.104 237.536 150.198 237.234 149.156C236.932 148.104 236.781 146.964 236.781 145.734ZM240.547 145.406V145.734C240.547 146.505 240.615 147.224 240.75 147.891C240.896 148.557 241.12 149.146 241.422 149.656C241.724 150.156 242.115 150.552 242.594 150.844C243.083 151.125 243.667 151.266 244.344 151.266C245.198 151.266 245.901 151.078 246.453 150.703C247.005 150.328 247.438 149.823 247.75 149.188C248.073 148.542 248.292 147.823 248.406 147.031V144.203C248.344 143.589 248.214 143.016 248.016 142.484C247.828 141.953 247.573 141.49 247.25 141.094C246.927 140.688 246.526 140.375 246.047 140.156C245.578 139.927 245.021 139.812 244.375 139.812C243.688 139.812 243.104 139.958 242.625 140.25C242.146 140.542 241.75 140.943 241.438 141.453C241.135 141.964 240.911 142.557 240.766 143.234C240.62 143.911 240.547 144.635 240.547 145.406ZM260.344 131.25L259.969 147.297H256.75L256.359 131.25H260.344ZM256.25 152.219C256.25 151.646 256.438 151.167 256.812 150.781C257.198 150.385 257.729 150.188 258.406 150.188C259.073 150.188 259.599 150.385 259.984 150.781C260.37 151.167 260.562 151.646 260.562 152.219C260.562 152.771 260.37 153.245 259.984 153.641C259.599 154.026 259.073 154.219 258.406 154.219C257.729 154.219 257.198 154.026 256.812 153.641C256.438 153.245 256.25 152.771 256.25 152.219Z" fill="black"/>
<path d="M114.609 193.891V197H103.188V193.891H114.609ZM104.281 174.25V197H100.359V174.25H104.281ZM125.219 197.312C123.969 197.312 122.839 197.109 121.828 196.703C120.828 196.286 119.974 195.708 119.266 194.969C118.568 194.229 118.031 193.359 117.656 192.359C117.281 191.359 117.094 190.281 117.094 189.125V188.5C117.094 187.177 117.286 185.979 117.672 184.906C118.057 183.833 118.594 182.917 119.281 182.156C119.969 181.385 120.781 180.797 121.719 180.391C122.656 179.984 123.672 179.781 124.766 179.781C125.974 179.781 127.031 179.984 127.938 180.391C128.844 180.797 129.594 181.37 130.188 182.109C130.792 182.839 131.24 183.708 131.531 184.719C131.833 185.729 131.984 186.844 131.984 188.062V189.672H118.922V186.969H128.266V186.672C128.245 185.995 128.109 185.359 127.859 184.766C127.62 184.172 127.25 183.693 126.75 183.328C126.25 182.964 125.583 182.781 124.75 182.781C124.125 182.781 123.568 182.917 123.078 183.188C122.599 183.448 122.198 183.828 121.875 184.328C121.552 184.828 121.302 185.432 121.125 186.141C120.958 186.839 120.875 187.625 120.875 188.5V189.125C120.875 189.865 120.974 190.552 121.172 191.188C121.38 191.812 121.682 192.359 122.078 192.828C122.474 193.297 122.953 193.667 123.516 193.938C124.078 194.198 124.719 194.328 125.438 194.328C126.344 194.328 127.151 194.146 127.859 193.781C128.568 193.417 129.182 192.901 129.703 192.234L131.688 194.156C131.323 194.688 130.849 195.198 130.266 195.688C129.682 196.167 128.969 196.557 128.125 196.859C127.292 197.161 126.323 197.312 125.219 197.312ZM143.172 180.094V182.844H133.641V180.094H143.172ZM136.391 175.953H140.156V192.328C140.156 192.849 140.229 193.25 140.375 193.531C140.531 193.802 140.745 193.984 141.016 194.078C141.286 194.172 141.604 194.219 141.969 194.219C142.229 194.219 142.479 194.203 142.719 194.172C142.958 194.141 143.151 194.109 143.297 194.078L143.312 196.953C143 197.047 142.635 197.13 142.219 197.203C141.812 197.276 141.344 197.312 140.812 197.312C139.948 197.312 139.182 197.161 138.516 196.859C137.849 196.547 137.328 196.042 136.953 195.344C136.578 194.646 136.391 193.719 136.391 192.562V175.953ZM150.281 173V175.203C150.281 175.859 150.161 176.542 149.922 177.25C149.693 177.948 149.37 178.62 148.953 179.266C148.536 179.901 148.057 180.453 147.516 180.922L145.625 179.734C146.052 179.089 146.396 178.406 146.656 177.688C146.927 176.958 147.062 176.141 147.062 175.234V173H150.281ZM161.156 192.422C161.156 192.047 161.062 191.708 160.875 191.406C160.688 191.094 160.328 190.812 159.797 190.562C159.276 190.312 158.505 190.083 157.484 189.875C156.589 189.677 155.766 189.443 155.016 189.172C154.276 188.891 153.641 188.552 153.109 188.156C152.578 187.76 152.167 187.292 151.875 186.75C151.583 186.208 151.438 185.583 151.438 184.875C151.438 184.188 151.589 183.536 151.891 182.922C152.193 182.307 152.625 181.766 153.188 181.297C153.75 180.828 154.432 180.458 155.234 180.188C156.047 179.917 156.953 179.781 157.953 179.781C159.37 179.781 160.583 180.021 161.594 180.5C162.615 180.969 163.396 181.609 163.938 182.422C164.479 183.224 164.75 184.13 164.75 185.141H160.984C160.984 184.693 160.87 184.276 160.641 183.891C160.422 183.495 160.089 183.177 159.641 182.938C159.193 182.688 158.63 182.562 157.953 182.562C157.307 182.562 156.771 182.667 156.344 182.875C155.927 183.073 155.615 183.333 155.406 183.656C155.208 183.979 155.109 184.333 155.109 184.719C155.109 185 155.161 185.255 155.266 185.484C155.38 185.703 155.568 185.906 155.828 186.094C156.089 186.271 156.443 186.438 156.891 186.594C157.349 186.75 157.922 186.901 158.609 187.047C159.901 187.318 161.01 187.667 161.938 188.094C162.875 188.51 163.594 189.052 164.094 189.719C164.594 190.375 164.844 191.208 164.844 192.219C164.844 192.969 164.682 193.656 164.359 194.281C164.047 194.896 163.589 195.432 162.984 195.891C162.38 196.339 161.656 196.688 160.812 196.938C159.979 197.188 159.042 197.312 158 197.312C156.469 197.312 155.172 197.042 154.109 196.5C153.047 195.948 152.24 195.245 151.688 194.391C151.146 193.526 150.875 192.63 150.875 191.703H154.516C154.557 192.401 154.75 192.958 155.094 193.375C155.448 193.781 155.885 194.078 156.406 194.266C156.938 194.443 157.484 194.531 158.047 194.531C158.724 194.531 159.292 194.443 159.75 194.266C160.208 194.078 160.557 193.828 160.797 193.516C161.036 193.193 161.156 192.828 161.156 192.422ZM187.938 180.094H191.359V196.531C191.359 198.052 191.036 199.344 190.391 200.406C189.745 201.469 188.844 202.276 187.688 202.828C186.531 203.391 185.193 203.672 183.672 203.672C183.026 203.672 182.307 203.578 181.516 203.391C180.734 203.203 179.974 202.901 179.234 202.484C178.505 202.078 177.896 201.542 177.406 200.875L179.172 198.656C179.776 199.375 180.443 199.901 181.172 200.234C181.901 200.568 182.667 200.734 183.469 200.734C184.333 200.734 185.068 200.573 185.672 200.25C186.286 199.938 186.76 199.474 187.094 198.859C187.427 198.245 187.594 197.495 187.594 196.609V183.922L187.938 180.094ZM176.453 188.734V188.406C176.453 187.125 176.609 185.958 176.922 184.906C177.234 183.844 177.682 182.932 178.266 182.172C178.849 181.401 179.557 180.812 180.391 180.406C181.224 179.99 182.167 179.781 183.219 179.781C184.312 179.781 185.245 179.979 186.016 180.375C186.797 180.771 187.448 181.339 187.969 182.078C188.49 182.807 188.896 183.682 189.188 184.703C189.49 185.714 189.714 186.839 189.859 188.078V189.125C189.724 190.333 189.495 191.438 189.172 192.438C188.849 193.438 188.422 194.302 187.891 195.031C187.359 195.76 186.703 196.323 185.922 196.719C185.151 197.115 184.24 197.312 183.188 197.312C182.156 197.312 181.224 197.099 180.391 196.672C179.568 196.245 178.859 195.646 178.266 194.875C177.682 194.104 177.234 193.198 176.922 192.156C176.609 191.104 176.453 189.964 176.453 188.734ZM180.219 188.406V188.734C180.219 189.505 180.292 190.224 180.438 190.891C180.594 191.557 180.828 192.146 181.141 192.656C181.464 193.156 181.87 193.552 182.359 193.844C182.859 194.125 183.448 194.266 184.125 194.266C185.01 194.266 185.734 194.078 186.297 193.703C186.87 193.328 187.307 192.823 187.609 192.188C187.922 191.542 188.141 190.823 188.266 190.031V187.203C188.203 186.589 188.073 186.016 187.875 185.484C187.688 184.953 187.432 184.49 187.109 184.094C186.786 183.688 186.38 183.375 185.891 183.156C185.401 182.927 184.823 182.812 184.156 182.812C183.479 182.812 182.891 182.958 182.391 183.25C181.891 183.542 181.479 183.943 181.156 184.453C180.844 184.964 180.609 185.557 180.453 186.234C180.297 186.911 180.219 187.635 180.219 188.406ZM195.047 188.734V188.375C195.047 187.156 195.224 186.026 195.578 184.984C195.932 183.932 196.443 183.021 197.109 182.25C197.786 181.469 198.609 180.865 199.578 180.438C200.557 180 201.661 179.781 202.891 179.781C204.13 179.781 205.234 180 206.203 180.438C207.182 180.865 208.01 181.469 208.688 182.25C209.365 183.021 209.88 183.932 210.234 184.984C210.589 186.026 210.766 187.156 210.766 188.375V188.734C210.766 189.953 210.589 191.083 210.234 192.125C209.88 193.167 209.365 194.078 208.688 194.859C208.01 195.63 207.188 196.234 206.219 196.672C205.25 197.099 204.151 197.312 202.922 197.312C201.682 197.312 200.573 197.099 199.594 196.672C198.625 196.234 197.802 195.63 197.125 194.859C196.448 194.078 195.932 193.167 195.578 192.125C195.224 191.083 195.047 189.953 195.047 188.734ZM198.812 188.375V188.734C198.812 189.495 198.891 190.214 199.047 190.891C199.203 191.568 199.448 192.161 199.781 192.672C200.115 193.182 200.542 193.583 201.062 193.875C201.583 194.167 202.203 194.312 202.922 194.312C203.62 194.312 204.224 194.167 204.734 193.875C205.255 193.583 205.682 193.182 206.016 192.672C206.349 192.161 206.594 191.568 206.75 190.891C206.917 190.214 207 189.495 207 188.734V188.375C207 187.625 206.917 186.917 206.75 186.25C206.594 185.573 206.344 184.974 206 184.453C205.667 183.932 205.24 183.526 204.719 183.234C204.208 182.932 203.599 182.781 202.891 182.781C202.182 182.781 201.568 182.932 201.047 183.234C200.536 183.526 200.115 183.932 199.781 184.453C199.448 184.974 199.203 185.573 199.047 186.25C198.891 186.917 198.812 187.625 198.812 188.375ZM218.766 174.25L218.391 190.297H215.172L214.781 174.25H218.766ZM214.672 195.219C214.672 194.646 214.859 194.167 215.234 193.781C215.62 193.385 216.151 193.188 216.828 193.188C217.495 193.188 218.021 193.385 218.406 193.781C218.792 194.167 218.984 194.646 218.984 195.219C218.984 195.771 218.792 196.245 218.406 196.641C218.021 197.026 217.495 197.219 216.828 197.219C216.151 197.219 215.62 197.026 215.234 196.641C214.859 196.245 214.672 195.771 214.672 195.219Z" fill="black"/>
</svg>
