<svg width="97" height="97" viewBox="0 0 97 97" fill="none" xmlns="http://www.w3.org/2000/svg">
<path d="M43.1111 5.38885C43.1111 5.38885 43.1111 -4.05312e-05 48.5 -4.05312e-05C53.8889 -4.05312e-05 53.8889 5.38885 53.8889 5.38885V10.7777C53.8889 10.7777 53.8889 16.1666 48.5 16.1666C43.1111 16.1666 43.1111 10.7777 43.1111 10.7777V5.38885Z" fill="#FFAC33"/>
<path d="M91.611 43.1111C91.611 43.1111 96.9999 43.1111 96.9999 48.5C96.9999 53.8889 91.611 53.8889 91.611 53.8889H86.2221C86.2221 53.8889 80.8333 53.8889 80.8333 48.5C80.8333 43.1111 86.2221 43.1111 86.2221 43.1111H91.611Z" fill="#FFAC33"/>
<path d="M10.7778 43.1111C10.7778 43.1111 16.1667 43.1111 16.1667 48.5C16.1667 53.8889 10.7778 53.8889 10.7778 53.8889H5.38889C5.38889 53.8889 0 53.8889 0 48.5C0 43.1111 5.38889 43.1111 5.38889 43.1111H10.7778Z" fill="#FFAC33"/>
<path d="M24.576 19.6534C24.576 19.6534 28.386 23.4633 24.576 27.2732C20.7661 31.0832 16.9561 27.2732 16.9561 27.2732L13.1435 23.4633C13.1435 23.4633 9.33356 19.6534 13.1435 15.8407C16.9561 12.0308 20.7661 15.8407 20.7661 15.8407L24.576 19.6534Z" fill="#FFAC33"/>
<path d="M81.1593 76.2338C81.1593 76.2338 84.9692 80.0437 81.1593 83.8537C77.3493 87.6636 73.5394 83.8537 73.5394 83.8537L69.7294 80.0437C69.7294 80.0437 65.9195 76.2338 69.7294 72.4239C73.5394 68.6139 77.3493 72.4239 77.3493 72.4239L81.1593 76.2338Z" fill="#FFAC33"/>
<path d="M80.0466 27.2704C80.0466 27.2704 76.2367 31.0804 72.4267 27.2704C68.6168 23.4605 72.4267 19.6505 72.4267 19.6505L76.2367 15.8406C76.2367 15.8406 80.0466 12.0307 83.8565 15.8406C87.6665 19.6505 83.8565 23.4605 83.8565 23.4605L80.0466 27.2704Z" fill="#FFAC33"/>
<path d="M23.4631 83.8537C23.4631 83.8537 19.6532 87.6636 15.8432 83.8537C12.0333 80.0437 15.8432 76.2338 15.8432 76.2338L19.6532 72.4239C19.6532 72.4239 23.4631 68.6139 27.273 72.4239C31.083 76.2338 27.273 80.0437 27.273 80.0437L23.4631 83.8537Z" fill="#FFAC33"/>
<path d="M43.1111 86.2222C43.1111 86.2222 43.1111 80.8333 48.5 80.8333C53.8889 80.8333 53.8889 86.2222 53.8889 86.2222V91.6111C53.8889 91.6111 53.8889 97 48.5 97C43.1111 97 43.1111 91.6111 43.1111 91.6111V86.2222Z" fill="#FFAC33"/>
<path d="M75.4446 48.5C75.4446 33.6186 63.3788 21.5556 48.5001 21.5556C33.6187 21.5556 21.5557 33.6186 21.5557 48.5C21.5557 63.3787 33.6187 75.4445 48.5001 75.4445C63.3788 75.4445 75.4446 63.3787 75.4446 48.5Z" fill="#FFAC33"/>
<path d="M51.1817 66.0429C51.0289 63.6622 49.953 61.4278 48.173 59.7944C46.393 58.1609 44.0426 57.2511 41.6 57.25C41.1506 57.25 40.7018 57.2803 40.2566 57.3408C39.2439 55.4333 37.7149 53.8336 35.836 52.7156C33.9571 51.5976 31.8002 51.0042 29.6 51C29.4766 51 29.3434 51.0008 29.2582 51.0078C26.8347 51.0676 24.4871 51.8464 22.5277 53.2406C20.5683 54.6348 19.0899 56.5784 18.2891 58.813C16.6117 58.8435 15.0135 59.515 13.8376 60.6835C12.6617 61.852 12.002 63.4242 12 65.0625C12.0001 65.3017 12.0145 65.5406 12.043 65.7781C10.8349 66.3602 9.81669 67.2594 9.10258 68.3749C8.38848 69.4905 8.00669 70.7782 8.00002 72.0937C7.99721 73.3316 8.33388 74.5476 8.97506 75.6155C9.04568 75.7326 9.1464 75.8297 9.26725 75.8971C9.38811 75.9646 9.5249 76 9.6641 76H18.688C18.8786 76 19.0629 75.9336 19.2078 75.8127C19.3526 75.6917 19.4486 75.5243 19.4783 75.3405C19.7091 73.917 20.4525 72.6207 21.5747 71.6847C22.6969 70.7488 24.1243 70.2345 25.6001 70.2345C27.0759 70.2345 28.5032 70.7488 29.6254 71.6847C30.7476 72.6207 31.491 73.917 31.7219 75.3405C31.7516 75.5243 31.8475 75.6917 31.9924 75.8127C32.1373 75.9336 32.3216 76 32.5122 76H54.1922C54.3208 76.0001 54.4476 75.9698 54.5618 75.9117C54.6759 75.8537 54.774 75.7696 54.8477 75.6666C55.5995 74.62 56.002 73.3722 56 72.0937C55.9947 70.7069 55.519 69.3609 54.6472 68.2661C53.7754 67.1713 52.5567 66.3895 51.1817 66.0429Z" fill="#9CD5F2"/>
<path d="M36.0877 72.8683C36.0703 72.5347 36.0364 72.2023 35.986 71.8722C35.6473 69.6774 34.556 67.6787 32.9085 66.2356C31.261 64.7924 29.1654 63.9997 26.9988 64C24.8321 64.0003 22.7367 64.7936 21.0896 66.2371C19.4424 67.6807 18.3516 69.6797 18.0135 71.8746C17.9635 72.2039 17.9297 72.5355 17.9123 72.8683C16.4737 73.4012 15.2303 74.376 14.3513 75.6598C13.4722 76.9436 13.0004 78.474 13 80.0428C13 80.2966 13.0983 80.5401 13.2734 80.7196C13.4484 80.8991 13.6858 81 13.9333 81H40.0667C40.3142 81 40.5516 80.8991 40.7266 80.7196C40.9017 80.5401 41 80.2966 41 80.0428C40.9996 78.474 40.5278 76.9436 39.6487 75.6598C38.7697 74.376 37.5263 73.4012 36.0877 72.8683V72.8683Z" fill="#B2EBF2"/>
</svg>
