<svg width="115" height="106" viewBox="0 0 115 106" fill="none" xmlns="http://www.w3.org/2000/svg">
<path d="M61.1111 5.38885C61.1111 5.38885 61.1111 -4.00543e-05 66.5 -4.00543e-05C71.8889 -4.00543e-05 71.8889 5.38885 71.8889 5.38885V10.7777C71.8889 10.7777 71.8889 16.1666 66.5 16.1666C61.1111 16.1666 61.1111 10.7777 61.1111 10.7777V5.38885Z" fill="#FFAC33"/>
<path d="M109.611 43.1111C109.611 43.1111 115 43.1111 115 48.5C115 53.8889 109.611 53.8889 109.611 53.8889H104.222C104.222 53.8889 98.8333 53.8889 98.8333 48.5C98.8333 43.1111 104.222 43.1111 104.222 43.1111H109.611Z" fill="#FFAC33"/>
<path d="M28.7778 43.1111C28.7778 43.1111 34.1667 43.1111 34.1667 48.5C34.1667 53.8889 28.7778 53.8889 28.7778 53.8889H23.3889C23.3889 53.8889 18 53.8889 18 48.5C18 43.1111 23.3889 43.1111 23.3889 43.1111H28.7778Z" fill="#FFAC33"/>
<path d="M42.576 19.6534C42.576 19.6534 46.386 23.4633 42.576 27.2732C38.7661 31.0832 34.9561 27.2732 34.9561 27.2732L31.1435 23.4633C31.1435 23.4633 27.3336 19.6534 31.1435 15.8407C34.9561 12.0308 38.7661 15.8407 38.7661 15.8407L42.576 19.6534Z" fill="#FFAC33"/>
<path d="M99.1593 76.2338C99.1593 76.2338 102.969 80.0437 99.1593 83.8537C95.3493 87.6636 91.5394 83.8537 91.5394 83.8537L87.7294 80.0437C87.7294 80.0437 83.9195 76.2338 87.7294 72.4239C91.5394 68.6139 95.3493 72.4239 95.3493 72.4239L99.1593 76.2338Z" fill="#FFAC33"/>
<path d="M98.0466 27.2704C98.0466 27.2704 94.2367 31.0804 90.4267 27.2704C86.6168 23.4605 90.4267 19.6505 90.4267 19.6505L94.2367 15.8406C94.2367 15.8406 98.0466 12.0307 101.857 15.8406C105.666 19.6505 101.857 23.4605 101.857 23.4605L98.0466 27.2704Z" fill="#FFAC33"/>
<path d="M41.4631 83.8537C41.4631 83.8537 37.6532 87.6636 33.8432 83.8537C30.0333 80.0437 33.8432 76.2338 33.8432 76.2338L37.6532 72.4239C37.6532 72.4239 41.4631 68.6139 45.273 72.4239C49.083 76.2338 45.273 80.0437 45.273 80.0437L41.4631 83.8537Z" fill="#FFAC33"/>
<path d="M61.1111 86.2222C61.1111 86.2222 61.1111 80.8333 66.5 80.8333C71.8889 80.8333 71.8889 86.2222 71.8889 86.2222V91.6111C71.8889 91.6111 71.8889 97 66.5 97C61.1111 97 61.1111 91.6111 61.1111 91.6111V86.2222Z" fill="#FFAC33"/>
<path d="M93.4446 48.5C93.4446 33.6186 81.3788 21.5556 66.5001 21.5556C51.6187 21.5556 39.5557 33.6186 39.5557 48.5C39.5557 63.3787 51.6187 75.4445 66.5001 75.4445C81.3788 75.4445 93.4446 63.3787 93.4446 48.5Z" fill="#FFAC33"/>
<path d="M82.7649 77.4841C82.472 72.8179 80.4099 68.4386 76.9983 65.237C73.5866 62.0354 69.0816 60.2521 64.4 60.25C63.5387 60.25 62.6784 60.3094 61.8252 60.4279C59.8841 56.6893 56.9536 53.5538 53.3523 51.3626C49.7511 49.1713 45.6171 48.0083 41.4 48C41.1634 48 40.9081 48.0015 40.745 48.0153C36.0998 48.1325 31.6003 49.6589 27.8448 52.3915C24.0893 55.1242 21.2557 58.9337 19.7207 63.3136C16.5058 63.3732 13.4426 64.6894 11.1888 66.9797C8.93499 69.2699 7.67044 72.3514 7.6667 75.5625C7.66694 76.0312 7.69444 76.4996 7.74904 76.9651C5.43351 78.106 3.48198 79.8685 2.11328 82.0549C0.74458 84.2413 0.0128147 86.7653 3.3392e-05 89.3437C-0.00534857 91.77 0.639942 94.1534 1.86886 96.2463C2.00422 96.4759 2.19727 96.6662 2.4289 96.7984C2.66054 96.9306 2.92273 97.0001 3.18952 97H20.4854C20.8506 97 21.2039 96.8698 21.4816 96.6328C21.7592 96.3958 21.9431 96.0676 22 95.7073C22.4425 92.9173 23.8673 90.3766 26.0182 88.5421C28.1691 86.7076 30.9049 85.6997 33.7335 85.6997C36.5621 85.6997 39.2979 86.7076 41.4488 88.5421C43.5997 90.3766 45.0245 92.9173 45.467 95.7073C45.5239 96.0676 45.7078 96.3958 45.9854 96.6328C46.2631 96.8698 46.6164 97 46.9817 97H88.535C88.7816 97.0001 89.0246 96.9407 89.2434 96.827C89.4621 96.7132 89.6501 96.5483 89.7914 96.3465C91.2324 94.2952 92.0038 91.8495 92 89.3437C91.9898 86.6256 91.078 83.9874 89.4071 81.8416C87.7362 79.6958 85.4004 78.1635 82.7649 77.4841Z" fill="#9CD5F2"/>
<path d="M54.1754 90.6933C54.1406 90.0654 54.0728 89.4396 53.9721 88.8183C53.2947 84.687 51.1121 80.9246 47.817 78.2081C44.522 75.4917 40.3308 73.9995 35.9975 74C31.6643 74.0005 27.4735 75.4938 24.1792 78.2111C20.8849 80.9284 18.7033 84.6913 18.027 88.8228C17.927 89.4426 17.8595 90.0669 17.8246 90.6933C14.9475 91.6965 12.4605 93.5313 10.7025 95.9478C8.94449 98.3644 8.00081 101.245 8 104.198C8 104.676 8.19667 105.134 8.54673 105.472C8.8968 105.81 9.3716 106 9.86667 106H62.1333C62.6284 106 63.1032 105.81 63.4533 105.472C63.8033 105.134 64 104.676 64 104.198C63.9992 101.245 63.0555 98.3644 61.2975 95.9478C59.5395 93.5313 57.0525 91.6965 54.1754 90.6933Z" fill="#B2EBF2"/>
</svg>
