<svg width="100" height="58" viewBox="0 0 100 58" fill="none" xmlns="http://www.w3.org/2000/svg">
<g clip-path="url(#clip0_272_1586)">
<rect opacity="0.0229128" x="0.5" y="0.5" width="99" height="99" stroke="#2B2B2B"/>
<g clip-path="url(#clip1_272_1586)">
<path fill-rule="evenodd" clip-rule="evenodd" d="M88.0729 33.89C94.2006 33.89 99.1857 38.9498 99.1857 45.1734C99.1857 51.3926 94.2006 56.4524 88.0729 56.4524H39.7559C32.0665 56.4524 25.8091 50.0989 25.8091 42.2896C25.8091 34.4804 32.0665 28.1269 39.7559 28.1269C41.1878 28.1269 42.6112 28.3507 43.9814 28.7919L44.8772 29.0796L45.1921 28.1823C48.1453 19.7528 56.0367 14.0898 64.8282 14.0898C75.5772 14.0898 84.4984 22.2657 85.5814 33.11L85.6814 34.1138L86.6687 33.9902C87.2133 33.922 87.6601 33.89 88.0729 33.89" fill="#D6E3F2"/>
<path fill-rule="evenodd" clip-rule="evenodd" d="M12.2764 31.6774C5.50827 31.6774 -0.000244141 37.2488 -0.000244141 44.0989C-0.000244141 50.9448 5.50827 56.5182 12.2764 56.5182H65.6529C74.1508 56.5182 81.0615 49.5232 81.0615 40.9253C81.0615 32.3275 74.1508 25.3324 65.6529 25.3324C64.0721 25.3324 62.4998 25.5797 60.9849 26.0635L59.9976 26.381L59.6487 25.3921C56.387 16.1122 47.6678 9.87805 37.9551 9.87805C26.0806 9.87805 16.2253 18.8808 15.0295 30.8185L14.9189 31.9247L13.8295 31.7883C13.2253 31.7115 12.7317 31.6774 12.2764 31.6774" fill="#BAC6D1"/>
</g>
</g>
<defs>
<clipPath id="clip0_272_1586">
<rect width="100" height="58" fill="white"/>
</clipPath>
<clipPath id="clip1_272_1586">
<rect width="100" height="83" fill="white" transform="translate(0 9)"/>
</clipPath>
</defs>
</svg>
