<svg width="95" height="101" viewBox="0 0 95 101" fill="none" xmlns="http://www.w3.org/2000/svg">
<path d="M16.8209 70.2544C16.6726 70.1868 16.5128 70.1499 16.3506 70.1459C16.1884 70.1418 16.027 70.1707 15.8757 70.2308C15.7244 70.2908 15.586 70.381 15.4686 70.4961C15.3512 70.6111 15.257 70.7489 15.1915 70.9014L9.1057 84.9828C8.9731 85.2907 8.96494 85.64 9.08301 85.9541C9.20107 86.2681 9.4357 86.5211 9.73526 86.6574C10.0348 86.7936 10.3748 86.802 10.6804 86.6807C10.986 86.5593 11.2321 86.3182 11.3647 86.0104L17.4628 71.9162C17.591 71.6083 17.5955 71.2607 17.4752 70.9493C17.3549 70.638 17.1197 70.3882 16.8209 70.2544ZM25.9681 70.2544C25.8198 70.1868 25.66 70.1499 25.4978 70.1459C25.3356 70.1418 25.1742 70.1707 25.0229 70.2308C24.8715 70.2908 24.7332 70.381 24.6158 70.4961C24.4984 70.6111 24.4042 70.7489 24.3386 70.9014L12.1794 99.0896C12.1138 99.242 12.078 99.4063 12.0741 99.5729C12.0702 99.7396 12.0983 99.9054 12.1568 100.061C12.2152 100.216 12.3029 100.359 12.4148 100.479C12.5267 100.6 12.6607 100.697 12.809 100.764C12.9573 100.832 13.1171 100.868 13.2793 100.872C13.4415 100.876 13.6028 100.848 13.7541 100.787C13.9054 100.727 14.0437 100.637 14.1612 100.522C14.2786 100.407 14.3728 100.27 14.4385 100.117L26.6347 71.9289C26.6993 71.7742 26.7334 71.6078 26.7348 71.4394C26.7362 71.271 26.705 71.1039 26.6429 70.9481C26.5809 70.7922 26.4893 70.6506 26.3734 70.5315C26.2575 70.4124 26.1198 70.3182 25.9681 70.2544ZM44.2748 70.2544C44.1265 70.1868 43.9666 70.1499 43.8045 70.1459C43.6423 70.1418 43.4809 70.1707 43.3296 70.2308C43.1782 70.2908 43.0399 70.381 42.9225 70.4961C42.8051 70.6111 42.7109 70.7489 42.6453 70.9014L30.4368 99.0896C30.3711 99.242 30.3353 99.4063 30.3314 99.5729C30.3275 99.7396 30.3556 99.9054 30.4141 100.061C30.4725 100.216 30.5602 100.359 30.6721 100.479C30.784 100.6 30.918 100.697 31.0663 100.764C31.2146 100.832 31.3745 100.868 31.5366 100.872C31.6988 100.876 31.8601 100.848 32.0114 100.787C32.1627 100.727 32.3011 100.637 32.4185 100.522C32.5359 100.407 32.6301 100.27 32.6958 100.117L44.892 71.9289C45.0256 71.6227 45.0356 71.2745 44.92 70.9606C44.8043 70.6468 44.5723 70.3928 44.2748 70.2544ZM35.1153 70.2544C34.967 70.1868 34.8071 70.1499 34.6449 70.1459C34.4827 70.1418 34.3214 70.1707 34.17 70.2308C34.0187 70.2908 33.8804 70.381 33.763 70.4961C33.6456 70.6111 33.5514 70.7489 33.4858 70.9014L27.3877 84.9828C27.2551 85.2907 27.2469 85.64 27.365 85.9541C27.4831 86.2681 27.7177 86.5211 28.0173 86.6574C28.3168 86.7936 28.6568 86.802 28.9624 86.6807C29.268 86.5593 29.5141 86.3182 29.6467 86.0104L35.7448 71.9162C35.8738 71.6098 35.88 71.2635 35.7622 70.9524C35.6443 70.6414 35.4119 70.3905 35.1153 70.2544V70.2544Z" fill="#B3E5FC"/>
<path d="M51.1443 53.4209C50.9933 53.3759 50.8321 53.3559 50.67 53.362C50.5079 53.368 50.348 53.4 50.1995 53.4562C50.051 53.5123 49.9167 53.5915 49.8045 53.6892C49.6922 53.7868 49.6041 53.901 49.5452 54.0253L44.076 65.5031C43.9569 65.754 43.9638 66.0306 44.0952 66.2721C44.2266 66.5135 44.4718 66.7001 44.7768 66.7907C45.0817 66.8813 45.4215 66.8685 45.7214 66.7551C46.0213 66.6417 46.2567 66.4371 46.3758 66.1862L51.8568 54.6977C51.9715 54.447 51.961 54.172 51.8275 53.9328C51.694 53.6936 51.4484 53.5095 51.1443 53.4209ZM60.2772 52.8983C60.1262 52.8533 59.965 52.8333 59.8029 52.8394C59.6408 52.8455 59.4809 52.8775 59.3324 52.9336C59.1839 52.9897 59.0497 53.0689 58.9374 53.1666C58.8252 53.2642 58.7371 53.3785 58.6782 53.5028L47.7531 76.4776C47.6941 76.6018 47.6655 76.7337 47.6688 76.8656C47.6721 76.9975 47.7073 77.127 47.7723 77.2466C47.8374 77.3661 47.9311 77.4735 48.048 77.5624C48.165 77.6514 48.3029 77.7203 48.4539 77.7652C48.6049 77.81 48.766 77.83 48.9281 77.8239C49.0902 77.8178 49.2501 77.7857 49.3985 77.7296C49.547 77.6735 49.6812 77.5943 49.7935 77.4967C49.9058 77.3991 49.9939 77.2849 50.0529 77.1607L61.0149 54.1838C61.0728 54.0578 61.0996 53.9243 61.0938 53.7911C61.0879 53.6579 61.0495 53.5277 60.9809 53.408C60.9122 53.2884 60.8146 53.1817 60.6938 53.0941C60.573 53.0066 60.4314 52.94 60.2772 52.8983ZM78.5554 51.8524C78.4044 51.8075 78.2432 51.7875 78.0811 51.7935C77.919 51.7996 77.7591 51.8316 77.6106 51.8877C77.4621 51.9439 77.3279 52.023 77.2156 52.1207C77.1033 52.2184 77.0152 52.3326 76.9563 52.4569L65.982 75.4345C65.923 75.5588 65.8944 75.6906 65.8977 75.8226C65.901 75.9545 65.9361 76.0839 66.0012 76.2035C66.0663 76.3231 66.16 76.4304 66.2769 76.5194C66.3939 76.6084 66.5318 76.6773 66.6828 76.7221C66.8338 76.767 66.9949 76.7869 67.157 76.7808C67.3191 76.7747 67.4789 76.7427 67.6274 76.6866C67.7759 76.6304 67.9101 76.5513 68.0224 76.4537C68.1347 76.3561 68.2228 76.2419 68.2818 76.1177L79.2438 53.1407C79.364 52.891 79.359 52.6152 79.23 52.3738C79.101 52.1323 78.8584 51.9448 78.5554 51.8524ZM69.4101 52.3757C69.2591 52.3308 69.098 52.3107 68.9358 52.3168C68.7737 52.3229 68.6138 52.3549 68.4653 52.411C68.3168 52.4672 68.1826 52.5463 68.0703 52.644C67.9581 52.7416 67.87 52.8559 67.8111 52.9802L62.3295 64.4586C62.2104 64.7095 62.2173 64.9861 62.3488 65.2276C62.4802 65.4691 62.7253 65.6556 63.0303 65.7462C63.3353 65.8368 63.6751 65.824 63.975 65.7107C64.2748 65.5973 64.5102 65.3926 64.6293 65.1417L70.1103 53.6533C70.2259 53.4037 70.2172 53.1297 70.0861 52.8905C69.955 52.6513 69.7121 52.4664 69.4101 52.3757Z" fill="#B3E5FC"/>
<path d="M85.4637 31.9284C85.1613 26.9541 83.032 22.2854 79.5091 18.8724C75.9862 15.4593 71.3343 13.5583 66.5 13.556C65.6106 13.556 64.7222 13.6194 63.8413 13.7457C61.8369 9.76012 58.8107 6.41754 55.0921 4.0816C51.3734 1.74565 47.1046 0.50581 42.75 0.496948C42.5057 0.496948 42.2421 0.498581 42.0736 0.513272C37.2769 0.638163 32.6308 2.26536 28.7528 5.17853C24.8748 8.0917 21.9488 12.1528 20.3638 16.822C17.044 16.8855 13.8809 18.2887 11.5536 20.7302C9.22635 23.1717 7.92056 26.4568 7.9167 29.8799C7.91695 30.3796 7.94534 30.8789 8.00172 31.3752C5.61069 32.5914 3.59553 34.4703 2.18219 36.8011C0.76886 39.1319 0.0132325 41.8226 3.44808e-05 44.5714C-0.00552298 47.1579 0.660809 49.6987 1.9298 51.9299C2.06957 52.1746 2.26892 52.3775 2.50811 52.5184C2.7473 52.6593 3.01803 52.7334 3.29352 52.7333H21.1534C21.5305 52.7333 21.8953 52.5945 22.182 52.3419C22.4688 52.0892 22.6586 51.7394 22.7174 51.3553C23.1743 48.381 24.6456 45.6725 26.8667 43.7168C29.0877 41.7611 31.9127 40.6866 34.8335 40.6866C37.7543 40.6866 40.5793 41.7611 42.8004 43.7168C45.0214 45.6725 46.4927 48.381 46.9496 51.3553C47.0084 51.7394 47.1982 52.0892 47.485 52.3419C47.7717 52.5945 48.1365 52.7333 48.5137 52.7333H91.422C91.6767 52.7334 91.9276 52.6701 92.1535 52.5489C92.3793 52.4276 92.5735 52.2518 92.7194 52.0366C94.2074 49.8499 95.0039 47.2426 95 44.5714C94.9895 41.6737 94.0479 38.8612 92.3225 36.5737C90.5972 34.2862 88.1852 32.6527 85.4637 31.9284Z" fill="#9CD5F2"/>
<path d="M50.7543 52.8648C50.7252 52.2819 50.6682 51.7011 50.5837 51.1244C50.0152 47.2896 48.1834 43.7973 45.4179 41.2758C42.6524 38.7543 39.1348 37.3692 35.4979 37.3698C31.8611 37.3703 28.3438 38.7563 25.579 41.2786C22.8141 43.8008 20.9831 47.2936 20.4155 51.1286C20.3316 51.7039 20.2749 52.2834 20.2457 52.8648C17.8309 53.796 15.7437 55.499 14.2682 57.7422C12.7927 59.9853 12.0007 62.6593 12 65.4003C12 65.8438 12.1651 66.2693 12.4589 66.5829C12.7527 66.8966 13.1512 67.0728 13.5667 67.0728H57.4333C57.8488 67.0728 58.2473 66.8966 58.5411 66.5829C58.8349 66.2693 59 65.8438 59 65.4003C58.9993 62.6593 58.2073 59.9853 56.7318 57.7422C55.2563 55.499 53.1691 53.796 50.7543 52.8648Z" fill="#B2EBF2"/>
</svg>
