<svg width="100" height="89" viewBox="0 0 100 89" fill="none" xmlns="http://www.w3.org/2000/svg">
<g clip-path="url(#clip0_274_1706)">
<path fill-rule="evenodd" clip-rule="evenodd" d="M22.8705 61.8789C22.8705 61.8789 20.1432 69.1636 20.825 71.9453C21.3869 74.2459 23.7522 75.6556 26.1028 75.0888C28.4576 74.5199 29.9012 72.19 29.3372 69.8893C28.6575 67.1056 22.8705 61.8789 22.8705 61.8789" fill="#38A1E8"/>
<path fill-rule="evenodd" clip-rule="evenodd" d="M75.1549 62C75.1549 62 72.4276 69.2847 73.1094 72.0664C73.6713 74.367 76.0366 75.7767 78.3872 75.2099C80.742 74.641 82.1856 72.3111 81.6216 70.0104C80.9419 67.2267 75.1549 62 75.1549 62" fill="#38A1E8"/>
<path fill-rule="evenodd" clip-rule="evenodd" d="M52.1549 62C52.1549 62 49.4276 69.2847 50.1094 72.0664C50.6713 74.367 53.0366 75.7767 55.3872 75.2099C57.742 74.641 59.1856 72.3111 58.6216 70.0104C57.9419 67.2267 52.1549 62 52.1549 62" fill="#38A1E8"/>
<path fill-rule="evenodd" clip-rule="evenodd" d="M88.9602 34.0864C95.0208 34.0864 99.9513 39.0516 99.9513 45.1588C99.9513 51.2618 95.0208 56.227 88.9602 56.227H41.1719C33.5667 56.227 27.3777 49.9922 27.3777 42.329C27.3777 34.6657 33.5667 28.431 41.1719 28.431C42.5881 28.431 43.996 28.6506 45.3512 29.0835L46.2371 29.3659L46.5486 28.4854C49.4694 20.2135 57.2746 14.6564 65.9699 14.6564C76.6012 14.6564 85.4248 22.6794 86.496 33.3209L86.5949 34.306L87.5713 34.1847C88.11 34.1178 88.5519 34.0864 88.9602 34.0864" fill="#BAC6D1"/>
<path fill-rule="evenodd" clip-rule="evenodd" d="M12.142 32.0414C5.44799 32.0414 -0.000244141 37.5086 -0.000244141 44.2306C-0.000244141 50.9485 5.44799 56.4178 12.142 56.4178H64.9345C73.3394 56.4178 80.1744 49.5535 80.1744 41.1164C80.1744 32.6793 73.3394 25.815 64.9345 25.815C63.371 25.815 61.8158 26.0576 60.3175 26.5324L59.3411 26.844L58.996 25.8736C55.77 16.7672 47.1462 10.6495 37.5397 10.6495C25.7952 10.6495 16.0477 19.484 14.8651 31.1985L14.7556 32.284L13.6782 32.1501C13.0806 32.0748 12.5923 32.0414 12.142 32.0414" fill="#D6E3F2"/>
<path fill-rule="evenodd" clip-rule="evenodd" d="M64.2003 69C64.2003 69 61.4731 76.2847 62.1549 79.0664C62.7168 81.367 65.0821 82.7767 67.4327 82.2099C69.7875 81.641 71.2311 79.3111 70.6671 77.0104C69.9874 74.2267 64.2003 69 64.2003 69Z" fill="#38A1E8"/>
<path fill-rule="evenodd" clip-rule="evenodd" d="M38.1549 69C38.1549 69 35.4276 76.2847 36.1094 79.0664C36.6713 81.367 39.0366 82.7767 41.3872 82.2099C43.742 81.641 45.1856 79.3111 44.6216 77.0104C43.9419 74.2267 38.1549 69 38.1549 69" fill="#38A1E8"/>
</g>
<defs>
<clipPath id="clip0_274_1706">
<rect width="100" height="89" fill="white"/>
</clipPath>
</defs>
</svg>
