<svg width="100" height="100" viewBox="0 0 100 100" fill="none" xmlns="http://www.w3.org/2000/svg">
<g clip-path="url(#clip0_274_1707)">
<path fill-rule="evenodd" clip-rule="evenodd" d="M22.8705 61.879C22.8705 61.879 20.1432 69.1637 20.825 71.9454C21.3869 74.2461 23.7522 75.6557 26.1028 75.0889C28.4576 74.52 29.9012 72.1901 29.3372 69.8895C28.6575 67.1057 22.8705 61.879 22.8705 61.879" fill="#38A1E8"/>
<path fill-rule="evenodd" clip-rule="evenodd" d="M39.7303 61.5405C39.7303 61.5405 37.003 68.8252 37.6849 71.6069C38.2467 73.9076 40.6121 75.3172 42.9626 74.7504C45.3174 74.1815 46.761 71.8516 46.1971 69.551C45.5174 66.7672 39.7303 61.5405 39.7303 61.5405" fill="#38A1E8"/>
<path fill-rule="evenodd" clip-rule="evenodd" d="M57.2499 61.1888C57.2499 61.1888 54.5226 68.4735 55.2044 71.2552C55.7663 73.5559 58.1316 74.9655 60.4822 74.3987C62.837 73.8299 64.2806 71.4999 63.7166 69.1993C63.0369 66.4155 57.2499 61.1888 57.2499 61.1888" fill="#38A1E8"/>
<path fill-rule="evenodd" clip-rule="evenodd" d="M73.7533 60.3716C73.7533 60.3716 71.026 67.6563 71.7078 70.438C72.2697 72.7386 74.635 74.1483 76.9856 73.5815C79.3404 73.0126 80.784 70.6827 80.22 68.382C79.5403 65.5982 73.7533 60.3716 73.7533 60.3716" fill="#38A1E8"/>
<path fill-rule="evenodd" clip-rule="evenodd" d="M32.7608 77.2583C32.7608 77.2583 30.0336 84.543 30.7154 87.3247C31.2773 89.6253 33.6426 91.035 35.9932 90.4682C38.348 89.8993 39.7916 87.5694 39.2276 85.2687C38.5479 82.485 32.7608 77.2583 32.7608 77.2583" fill="#38A1E8"/>
<path fill-rule="evenodd" clip-rule="evenodd" d="M50.2804 76.9065C50.2804 76.9065 47.5531 84.1912 48.2349 86.9729C48.7968 89.2735 51.1621 90.6832 53.5127 90.1164C55.8675 89.5475 57.3111 87.2176 56.7471 84.9169C56.0674 82.1331 50.2804 76.9065 50.2804 76.9065" fill="#38A1E8"/>
<path fill-rule="evenodd" clip-rule="evenodd" d="M66.7838 76.0891C66.7838 76.0891 64.0565 83.3738 64.7383 86.1555C65.3002 88.4561 67.6655 89.8658 70.0161 89.299C72.3709 88.7301 73.8145 86.4002 73.2505 84.0996C72.5708 81.3158 66.7838 76.0891 66.7838 76.0891" fill="#38A1E8"/>
<path fill-rule="evenodd" clip-rule="evenodd" d="M88.9602 34.0864C95.0208 34.0864 99.9513 39.0516 99.9513 45.1588C99.9513 51.2618 95.0208 56.227 88.9602 56.227H41.1719C33.5667 56.227 27.3777 49.9922 27.3777 42.329C27.3777 34.6657 33.5667 28.431 41.1719 28.431C42.5881 28.431 43.996 28.6506 45.3512 29.0835L46.2371 29.3659L46.5486 28.4854C49.4694 20.2135 57.2746 14.6564 65.9699 14.6564C76.6012 14.6564 85.4248 22.6794 86.496 33.3209L86.5949 34.306L87.5713 34.1847C88.11 34.1178 88.5519 34.0864 88.9602 34.0864" fill="#BAC6D1"/>
<path fill-rule="evenodd" clip-rule="evenodd" d="M12.142 32.0414C5.44799 32.0414 -0.000244141 37.5086 -0.000244141 44.2306C-0.000244141 50.9485 5.44799 56.4178 12.142 56.4178H64.9345C73.3394 56.4178 80.1744 49.5535 80.1744 41.1164C80.1744 32.6793 73.3394 25.815 64.9345 25.815C63.371 25.815 61.8158 26.0576 60.3175 26.5324L59.3411 26.844L58.996 25.8736C55.77 16.7672 47.1462 10.6495 37.5397 10.6495C25.7952 10.6495 16.0477 19.484 14.8651 31.1985L14.7556 32.284L13.6782 32.1501C13.0806 32.0748 12.5923 32.0414 12.142 32.0414" fill="#D6E3F2"/>
</g>
<defs>
<clipPath id="clip0_274_1707">
<rect width="100" height="100" fill="white"/>
</clipPath>
</defs>
</svg>
