<svg width="100" height="100" viewBox="0 0 100 100" fill="none" xmlns="http://www.w3.org/2000/svg">
<g clip-path="url(#clip0_274_1710)">
<path fill-rule="evenodd" clip-rule="evenodd" d="M39.7303 61.5405C39.7303 61.5405 37.003 68.8252 37.6849 71.6069C38.2467 73.9076 40.6121 75.3172 42.9626 74.7504C45.3174 74.1815 46.761 71.8516 46.1971 69.551C45.5174 66.7672 39.7303 61.5405 39.7303 61.5405" fill="#38A1E8"/>
<path fill-rule="evenodd" clip-rule="evenodd" d="M57.2499 61.1888C57.2499 61.1888 54.5226 68.4735 55.2044 71.2552C55.7663 73.5559 58.1316 74.9655 60.4822 74.3987C62.837 73.8299 64.2806 71.4999 63.7166 69.1993C63.0369 66.4155 57.2499 61.1888 57.2499 61.1888" fill="#38A1E8"/>
<path fill-rule="evenodd" clip-rule="evenodd" d="M73.7533 60.3716C73.7533 60.3716 71.026 67.6563 71.7078 70.438C72.2697 72.7386 74.635 74.1483 76.9856 73.5815C79.3404 73.0126 80.784 70.6827 80.22 68.382C79.5403 65.5982 73.7533 60.3716 73.7533 60.3716" fill="#38A1E8"/>
<path fill-rule="evenodd" clip-rule="evenodd" d="M50.2804 76.9065C50.2804 76.9065 47.5531 84.1912 48.2349 86.9729C48.7968 89.2735 51.1621 90.6832 53.5127 90.1164C55.8675 89.5475 57.3111 87.2176 56.7471 84.9169C56.0674 82.1331 50.2804 76.9065 50.2804 76.9065" fill="#38A1E8"/>
<path fill-rule="evenodd" clip-rule="evenodd" d="M66.7838 76.0891C66.7838 76.0891 64.0565 83.3738 64.7383 86.1555C65.3002 88.4561 67.6655 89.8658 70.0161 89.299C72.3709 88.7301 73.8145 86.4002 73.2505 84.0996C72.5708 81.3158 66.7838 76.0891 66.7838 76.0891" fill="#38A1E8"/>
<path fill-rule="evenodd" clip-rule="evenodd" d="M88.9602 34.0864C95.0208 34.0864 99.9513 39.0516 99.9513 45.1588C99.9513 51.2618 95.0208 56.227 88.9602 56.227H41.1719C33.5667 56.227 27.3777 49.9922 27.3777 42.329C27.3777 34.6657 33.5667 28.431 41.1719 28.431C42.5881 28.431 43.996 28.6506 45.3512 29.0835L46.2371 29.3659L46.5486 28.4854C49.4694 20.2135 57.2746 14.6564 65.9699 14.6564C76.6012 14.6564 85.4248 22.6794 86.496 33.3209L86.5949 34.306L87.5713 34.1847C88.11 34.1178 88.5519 34.0864 88.9602 34.0864" fill="#BAC6D1"/>
<path fill-rule="evenodd" clip-rule="evenodd" d="M12.142 32.0414C5.44799 32.0414 -0.000244141 37.5086 -0.000244141 44.2306C-0.000244141 50.9485 5.44799 56.4178 12.142 56.4178H64.9345C73.3394 56.4178 80.1744 49.5535 80.1744 41.1164C80.1744 32.6793 73.3394 25.815 64.9345 25.815C63.371 25.815 61.8158 26.0576 60.3175 26.5324L59.3411 26.844L58.996 25.8736C55.77 16.7672 47.1462 10.6495 37.5397 10.6495C25.7952 10.6495 16.0477 19.484 14.8651 31.1985L14.7556 32.284L13.6782 32.1501C13.0806 32.0748 12.5923 32.0414 12.142 32.0414" fill="#D6E3F2"/>
<path fill-rule="evenodd" clip-rule="evenodd" d="M31.9974 75.3608C31.9229 75.1978 31.7878 75.0732 31.616 75.0106C31.4448 74.9473 31.2574 74.9541 31.0888 75.0286L26.8839 76.9528L23.6827 75.8095L26.31 73.652L30.9283 74.0442C31.3059 74.0627 31.6276 73.7926 31.6603 73.4302C31.6784 73.2491 31.623 73.0731 31.5046 72.9345C31.3862 72.7958 31.2214 72.7125 31.0419 72.6993L27.8071 72.4232L30.5167 70.2007C30.8023 69.9556 30.8394 69.541 30.6 69.2566C30.3596 68.9709 29.924 68.9326 29.6309 69.1713L26.9307 71.3908L27.2321 68.211C27.248 68.0331 27.1891 67.8535 27.0718 67.7175C26.953 67.5803 26.7876 67.4978 26.6059 67.4842C26.2353 67.4569 25.9024 67.7317 25.864 68.0978L25.4343 72.6195L22.807 74.777L22.2329 71.4755L24.9079 67.753C25.1211 67.4503 25.0475 67.0307 24.7437 66.8165C24.5937 66.7126 24.411 66.6727 24.2293 66.7043C24.0483 66.7358 23.8904 66.8349 23.7842 66.9826L21.9063 69.5966L21.3158 66.2007C21.2523 65.8356 20.8957 65.5909 20.5214 65.656C20.1484 65.7209 19.8973 66.0711 19.9608 66.4363L20.5513 69.8322L17.902 68.0061C17.7521 67.9021 17.5693 67.8623 17.3876 67.8939C17.2067 67.9254 17.0482 68.0252 16.9403 68.1754C16.7278 68.4779 16.8021 68.8975 17.1059 69.1116L20.878 71.7111L21.452 75.0126L18.25 73.8687L16.3179 69.7534C16.1593 69.4243 15.754 69.2793 15.4144 69.4301C15.0689 69.5833 14.9149 69.9862 15.0701 70.3284L16.4275 73.2177L13.1315 72.0394C12.7752 71.9143 12.3879 72.0929 12.2496 72.4472C12.1199 72.7979 12.2992 73.177 12.6584 73.3099L15.9508 74.4846L13.0051 75.8339C12.8378 75.9075 12.7092 76.0404 12.6442 76.2089C12.5785 76.3774 12.5848 76.5689 12.662 76.7356C12.794 77.0095 13.0972 77.1633 13.3993 77.1108C13.4564 77.1008 13.511 77.0844 13.5731 77.0583L17.7714 75.1366L20.9755 76.2802L18.348 78.437L13.7419 78.0454C13.5608 78.031 13.376 78.0896 13.2369 78.2069C13.0989 78.3227 13.012 78.4873 12.9988 78.6565C12.9798 78.8364 13.0344 79.0118 13.1523 79.1519C13.2691 79.2894 13.438 79.3762 13.617 79.3903L16.8517 79.6657L14.1453 81.8862C13.8557 82.1292 13.817 82.5545 14.0588 82.8322C14.2169 83.0196 14.4588 83.1062 14.7051 83.0633C14.8235 83.0428 14.9346 82.9928 15.0279 82.9175L17.7307 80.6969L17.4293 83.8725C17.4108 84.0516 17.4662 84.2276 17.5847 84.3669C17.7006 84.5032 17.8634 84.5875 18.0406 84.6033C18.1021 84.6107 18.1634 84.6084 18.2288 84.597C18.5288 84.5448 18.7628 84.2963 18.7982 83.9904L19.2243 79.4687L21.8518 77.3119L22.4258 80.6134L19.7553 84.333C19.5361 84.6381 19.6094 85.0592 19.9187 85.2724C20.0685 85.3757 20.2505 85.4156 20.4329 85.3839C20.6145 85.3517 20.7718 85.2534 20.8773 85.1057L22.7526 82.4929L23.343 85.8882C23.4066 86.254 23.7623 86.498 24.1367 86.4329C24.5097 86.3681 24.7615 86.0184 24.6979 85.6526L24.1075 82.2566L26.7559 84.0822C26.906 84.1868 27.0888 84.2267 27.269 84.1953C27.4521 84.1635 27.6107 84.0643 27.7155 83.9168C27.9347 83.6117 27.8614 83.1905 27.5521 82.9773L23.7808 80.3778L23.2069 77.077L26.4086 78.223L28.3384 82.3372C28.4708 82.6097 28.7741 82.7635 29.0762 82.7109C29.1408 82.6997 29.1993 82.6812 29.2528 82.6545C29.417 82.5794 29.5419 82.4457 29.6051 82.279C29.6693 82.11 29.662 81.9215 29.5852 81.761L28.229 78.8743L31.5261 80.0511C31.6393 80.0905 31.7601 80.1001 31.8757 80.08C32.12 80.0375 32.3172 79.8753 32.4048 79.6452C32.5362 79.2997 32.3552 78.9113 32.0004 78.779L28.7079 77.6042L31.6571 76.2543C31.8248 76.1786 31.9522 76.0431 32.0167 75.8719C32.0796 75.7032 32.0727 75.5167 31.9974 75.3608" fill="#4FB4ED"/>
</g>
<defs>
<clipPath id="clip0_274_1710">
<rect width="100" height="100" fill="white"/>
</clipPath>
</defs>
</svg>
