<svg width="100" height="81" viewBox="0 0 100 81" fill="none" xmlns="http://www.w3.org/2000/svg">
<path fill-rule="evenodd" clip-rule="evenodd" d="M39.7303 51.5405C39.7303 51.5405 37.003 58.8252 37.6849 61.6069C38.2467 63.9076 40.6121 65.3172 42.9626 64.7504C45.3174 64.1815 46.761 61.8516 46.1971 59.551C45.5174 56.7672 39.7303 51.5405 39.7303 51.5405" fill="#38A1E8"/>
<path fill-rule="evenodd" clip-rule="evenodd" d="M57.2499 51.1888C57.2499 51.1888 54.5226 58.4735 55.2044 61.2552C55.7663 63.5559 58.1316 64.9655 60.4822 64.3987C62.837 63.8299 64.2806 61.4999 63.7166 59.1993C63.0369 56.4155 57.2499 51.1888 57.2499 51.1888" fill="#38A1E8"/>
<path fill-rule="evenodd" clip-rule="evenodd" d="M50.2804 66.9065C50.2804 66.9065 47.5531 74.1912 48.2349 76.9729C48.7968 79.2735 51.1621 80.6832 53.5127 80.1164C55.8675 79.5475 57.3111 77.2176 56.7471 74.9169C56.0674 72.1331 50.2804 66.9065 50.2804 66.9065" fill="#38A1E8"/>
<path fill-rule="evenodd" clip-rule="evenodd" d="M66.7838 66.0891C66.7838 66.0891 64.0565 73.3738 64.7383 76.1555C65.3002 78.4561 67.6655 79.8658 70.0161 79.299C72.3709 78.7301 73.8145 76.4002 73.2505 74.0996C72.5708 71.3158 66.7838 66.0891 66.7838 66.0891" fill="#38A1E8"/>
<path fill-rule="evenodd" clip-rule="evenodd" d="M88.9602 24.0864C95.0208 24.0864 99.9513 29.0516 99.9513 35.1588C99.9513 41.2618 95.0208 46.227 88.9602 46.227H41.1719C33.5667 46.227 27.3777 39.9922 27.3777 32.329C27.3777 24.6657 33.5667 18.431 41.1719 18.431C42.5881 18.431 43.996 18.6506 45.3512 19.0835L46.2371 19.3659L46.5486 18.4854C49.4694 10.2135 57.2746 4.65637 65.9699 4.65637C76.6012 4.65637 85.4248 12.6794 86.496 23.3209L86.5949 24.306L87.5713 24.1847C88.11 24.1178 88.5519 24.0864 88.9602 24.0864" fill="#BAC6D1"/>
<path fill-rule="evenodd" clip-rule="evenodd" d="M12.142 22.0414C5.44799 22.0414 -0.000244141 27.5086 -0.000244141 34.2306C-0.000244141 40.9485 5.44799 46.4178 12.142 46.4178H64.9345C73.3394 46.4178 80.1744 39.5535 80.1744 31.1164C80.1744 22.6793 73.3394 15.815 64.9345 15.815C63.371 15.815 61.8158 16.0576 60.3175 16.5324L59.3411 16.844L58.996 15.8736C55.77 6.76717 47.1462 0.649536 37.5397 0.649536C25.7952 0.649536 16.0477 9.48403 14.8651 21.1985L14.7556 22.284L13.6782 22.1501C13.0806 22.0748 12.5923 22.0414 12.142 22.0414" fill="#D6E3F2"/>
</svg>
