<svg width="121" height="95" viewBox="0 0 121 95" fill="none" xmlns="http://www.w3.org/2000/svg">
<path d="M108.138 38.8291C107.755 32.684 105.061 26.9166 100.603 22.7002C96.1458 18.4839 90.2597 16.1354 84.1429 16.1327C83.0175 16.1326 81.8934 16.2109 80.7787 16.367C78.2426 11.4433 74.4136 7.31405 69.7083 4.42832C65.0031 1.5426 59.6017 0.0109472 54.0918 0C53.7827 0 53.4492 0.00201704 53.236 0.0201663C47.1667 0.174451 41.2879 2.18463 36.3811 5.78343C31.4743 9.38223 27.772 14.3992 25.7664 20.1672C21.5659 20.2457 17.5636 21.9792 14.6189 24.9953C11.6742 28.0114 10.0219 32.0697 10.017 36.2985C10.0174 36.9158 10.0533 37.5325 10.1246 38.1457C7.09923 39.6481 4.54944 41.9692 2.76114 44.8486C0.972843 47.728 0.0167432 51.052 4.36288e-05 54.4477C-0.00698826 57.6429 0.836126 60.7817 2.44179 63.538C2.61864 63.8404 2.87088 64.091 3.17352 64.2651C3.47617 64.4392 3.81874 64.5307 4.16732 64.5306H26.7655C27.2427 64.5306 27.7043 64.3591 28.0671 64.047C28.4299 63.7349 28.6701 63.3027 28.7444 62.8282C29.3226 59.154 31.1843 55.8079 33.9945 53.392C36.8048 50.976 40.3793 49.6486 44.075 49.6486C47.7708 49.6486 51.3453 50.976 54.1556 53.392C56.9658 55.8079 58.8275 59.154 59.4057 62.8282C59.48 63.3027 59.7202 63.7349 60.083 64.047C60.4458 64.3591 60.9074 64.5306 61.3846 64.5306H115.677C115.999 64.5308 116.317 64.4526 116.602 64.3027C116.888 64.1529 117.134 63.9358 117.318 63.6699C119.201 60.9685 120.209 57.7476 120.204 54.4477C120.191 50.868 118.999 47.3936 116.816 44.5677C114.633 41.7419 111.581 39.7238 108.138 38.8291Z" fill="#9CD5F2"/>
<path d="M64.2197 64.693C64.1828 63.9729 64.1107 63.2553 64.0038 62.5429C63.2844 57.8056 60.9666 53.4913 57.4674 50.3764C53.9682 47.2615 49.5174 45.5504 44.9157 45.551C40.314 45.5516 35.8635 47.2639 32.3651 50.3798C28.8667 53.4957 26.55 57.8105 25.8318 62.5481C25.7256 63.2588 25.6539 63.9747 25.6169 64.693C22.5615 65.8433 19.9205 67.9472 18.0535 70.7182C16.1866 73.4893 15.1845 76.7927 15.1836 80.1788C15.1836 80.7267 15.3924 81.2523 15.7642 81.6397C16.136 82.0272 16.6402 82.2449 17.1659 82.2449H72.6707C73.1964 82.2449 73.7006 82.0272 74.0724 81.6397C74.4441 81.2523 74.653 80.7267 74.653 80.1788C74.6521 76.7927 73.65 73.4893 71.783 70.7182C69.9161 67.9472 67.2751 65.8433 64.2197 64.693Z" fill="#B2EBF2"/>
<path fill-rule="evenodd" clip-rule="evenodd" d="M47.9659 80.9444C47.9001 80.6897 47.7383 80.4752 47.5086 80.3413C47.28 80.2064 47.0109 80.1691 46.7519 80.2345L40.2741 81.9624L35.9896 79.5005L40.2741 77.0376L46.7671 78.7685C47.3012 78.8903 47.8273 78.5802 47.9639 78.0636C48.0347 77.8059 47.9993 77.537 47.8647 77.3064C47.7302 77.0758 47.5157 76.9137 47.2628 76.8493L42.7153 75.6349L47.1333 73.0985C47.6017 72.8156 47.7575 72.2245 47.4864 71.7523C47.2142 71.278 46.6022 71.1129 46.1246 71.3847L41.7208 73.9192L42.9399 69.39C43.0067 69.1363 42.9672 68.8614 42.8337 68.6348C42.6981 68.4063 42.4826 68.2452 42.2266 68.1797C41.7046 68.0468 41.1613 68.361 41.0157 68.8815L39.2806 75.3218L34.9962 77.7847V72.8589L39.7369 68.1415C40.1163 67.7568 40.1153 67.1305 39.7349 66.7439C39.5467 66.5556 39.2958 66.4518 39.0287 66.4518C38.7627 66.4518 38.5128 66.5556 38.3246 66.7428L34.9962 70.0556V64.9888C34.9962 64.4441 34.548 64 33.9976 64C33.4493 64 33.0042 64.4441 33.0042 64.9888V70.0556L29.6768 66.7439C29.4886 66.5556 29.2377 66.4518 28.9706 66.4518C28.7045 66.4518 28.4536 66.5566 28.2624 66.7469C27.8841 67.1315 27.8861 67.7578 28.2665 68.1445L33.0042 72.8589V77.7847L28.7187 75.3218L26.9827 68.8755C26.838 68.359 26.2957 68.0468 25.7737 68.1797C25.2426 68.3146 24.9229 68.8594 25.0595 69.3941L26.2795 73.9202L21.8686 71.3837C21.3911 71.1129 20.7942 71.274 20.5089 71.7523C20.2368 72.2275 20.3987 72.8216 20.8782 73.1046L25.2851 75.6349L20.7467 76.8473C20.4897 76.9117 20.2732 77.0718 20.1387 77.2994C20.0031 77.5269 19.9646 77.8059 20.0334 78.0667C20.1538 78.4966 20.5484 78.7957 20.9925 78.7957C21.0765 78.7957 21.1584 78.7856 21.2535 78.7634L27.7212 77.0376L32.0097 79.5005L27.7252 81.9624L21.2495 80.2356C20.9945 80.1691 20.7163 80.2074 20.4887 80.3423C20.2631 80.4752 20.0982 80.6917 20.0375 80.9333C19.9657 81.1891 20.0001 81.4569 20.1336 81.6895C20.2661 81.9181 20.4857 82.0863 20.7376 82.1517L25.2851 83.3651L20.8721 85.8995C20.3987 86.1784 20.2378 86.7846 20.514 87.2477C20.6931 87.5589 21.0168 87.7452 21.379 87.7452C21.553 87.7452 21.724 87.7008 21.8757 87.6153L26.2836 85.0798L25.0655 89.6029C24.9947 89.8577 25.0301 90.1265 25.1647 90.3581C25.2962 90.5847 25.5076 90.7478 25.7565 90.8152C25.8425 90.8414 25.9305 90.8535 26.0266 90.8535C26.4677 90.8535 26.8633 90.5524 26.9897 90.1185L28.7197 83.6772L33.0042 81.2153V86.1411L28.2705 90.8555C27.882 91.2422 27.882 91.8705 28.2705 92.2572C28.4587 92.4444 28.7086 92.5482 28.9767 92.5482C29.2438 92.5471 29.4926 92.4444 29.6798 92.2572L33.0042 88.9454V94.0112C33.0042 94.557 33.4513 95 34.0017 95C34.55 95 34.9962 94.557 34.9962 94.0112V88.9444L38.3226 92.2551C38.5107 92.4444 38.7616 92.5482 39.0267 92.5482C39.2958 92.5482 39.5467 92.4444 39.7329 92.2572C40.1213 91.8705 40.1213 91.2422 39.7329 90.8555L34.9962 86.1411V81.2163L39.2806 83.6822L41.0136 90.1265C41.135 90.5545 41.5296 90.8535 41.9737 90.8535C42.0688 90.8535 42.1568 90.8414 42.2398 90.8163C42.4927 90.7488 42.7042 90.5867 42.8357 90.3611C42.9692 90.1326 43.0056 89.8577 42.9358 89.6059L41.7168 85.0839L46.1297 87.6183C46.2815 87.7039 46.4514 87.7482 46.6214 87.7482C46.9805 87.7482 47.3022 87.5629 47.4843 87.2518C47.7575 86.7846 47.5956 86.1764 47.1222 85.8954L42.7153 83.3651L47.2587 82.1527C47.5167 82.0853 47.7322 81.9211 47.8668 81.6895C47.9983 81.461 48.0347 81.1891 47.9659 80.9444" fill="#4FB4ED"/>
<path fill-rule="evenodd" clip-rule="evenodd" d="M87.7422 59.2565C87.6226 58.9946 87.4055 58.7944 87.1294 58.6938C86.8542 58.5919 86.5531 58.603 86.2822 58.7227L79.525 61.8148L74.3807 59.9775L78.6028 56.5105L86.0242 57.1407C86.631 57.1705 87.1479 56.7364 87.2005 56.1541C87.2296 55.863 87.1406 55.5802 86.9503 55.3574C86.76 55.1347 86.4952 55.0008 86.2067 54.9795L81.0085 54.5358L85.3628 50.9643C85.8218 50.5705 85.8814 49.9043 85.4966 49.4472C85.1103 48.9881 84.4103 48.9266 83.9393 49.3102L79.6002 52.8768L80.0845 47.767C80.11 47.4811 80.0154 47.1925 79.827 46.9739C79.636 46.7534 79.3703 46.6209 79.0783 46.599C78.4828 46.5551 77.9477 46.9967 77.886 47.5851L77.1955 54.8513L72.9735 58.3183L72.051 53.0129L76.3496 47.031C76.6923 46.5446 76.5739 45.8702 76.0857 45.5261C75.8447 45.3591 75.551 45.295 75.2591 45.3458C74.9683 45.3964 74.7145 45.5556 74.5439 45.793L71.5261 49.9936L70.5772 44.5364C70.4752 43.9497 69.9021 43.5566 69.3006 43.6612C68.7012 43.7654 68.2978 44.3283 68.3998 44.915L69.3487 50.3722L65.0913 47.4377C64.8504 47.2706 64.5567 47.2066 64.2648 47.2574C63.9739 47.308 63.7193 47.4684 63.5459 47.7097C63.2044 48.1959 63.3239 48.8701 63.8121 49.2143L69.8736 53.3915L70.7961 58.6969L65.6505 56.8587L62.5456 50.2456C62.2908 49.7168 61.6396 49.4836 61.0939 49.726C60.5386 49.9723 60.2911 50.6197 60.5405 51.1697L62.7218 55.8126L57.4253 53.9191C56.8526 53.7181 56.2303 54.0051 56.0081 54.5744C55.7996 55.138 56.0878 55.7471 56.6649 55.9607L61.9559 57.8485L57.2221 60.0168C56.9533 60.1351 56.7466 60.3487 56.6421 60.6193C56.5366 60.8902 56.5468 61.1979 56.6708 61.4657C56.8829 61.9059 57.3702 62.153 57.8557 62.0686C57.9474 62.0527 58.0351 62.0262 58.1349 61.9843L64.8814 58.8963L70.0303 60.7339L65.8081 64.1998L58.4062 63.5706C58.1151 63.5475 57.8181 63.6416 57.5946 63.8302C57.3729 64.0162 57.2332 64.2807 57.2121 64.5525C57.1814 64.8417 57.2692 65.1236 57.4587 65.3487C57.6464 65.5697 57.9179 65.7091 58.2055 65.7317L63.4035 66.1743L59.0544 69.7427C58.5891 70.1331 58.5268 70.8165 58.9154 71.2629C59.1694 71.564 59.5582 71.7031 59.9541 71.6343C60.1443 71.6012 60.3228 71.521 60.4727 71.3999L64.8161 67.8314L64.3317 72.9345C64.302 73.2224 64.391 73.5052 64.5815 73.7291C64.7676 73.9481 65.0293 74.0836 65.314 74.1089C65.4129 74.1208 65.5114 74.1171 65.6164 74.0988C66.0986 74.015 66.4746 73.6155 66.5315 73.1241L67.2163 65.8577L71.4385 62.3918L72.361 67.6972L68.0696 73.6745C67.7173 74.1648 67.835 74.8415 68.332 75.1841C68.5728 75.3501 68.8654 75.4143 69.1584 75.3634C69.4502 75.3115 69.703 75.1536 69.8725 74.9163L72.8861 70.7176L73.8348 76.1737C73.937 76.7615 74.5087 77.1537 75.1103 77.0491C75.7097 76.9449 76.1144 76.3829 76.0122 75.7951L75.0633 70.3379L79.3194 73.2715C79.5605 73.4397 79.8542 73.5037 80.1439 73.4533C80.4381 73.4022 80.6929 73.2428 80.8613 73.0057C81.2135 72.5154 81.0959 71.8387 80.5988 71.496L74.5384 67.3186L73.6161 62.0143L78.7612 63.856L81.8623 70.4674C82.0751 70.9053 82.5624 71.1524 83.0479 71.068C83.1518 71.0499 83.2458 71.0202 83.3318 70.9773C83.5956 70.8566 83.7963 70.6418 83.8979 70.3738C84.001 70.1023 83.9894 69.7993 83.8659 69.5414L81.6865 64.9026L86.9849 66.7936C87.1668 66.8569 87.3608 66.8724 87.5466 66.8401C87.9392 66.7718 88.2562 66.5111 88.3969 66.1414C88.608 65.5863 88.3172 64.962 87.7471 64.7494L82.4561 62.8616L87.1955 60.6923C87.4648 60.5706 87.6696 60.3529 87.7733 60.0779C87.8743 59.8067 87.8632 59.507 87.7422 59.2565" fill="#4FB4ED"/>
</svg>
