<svg width="121" height="110" viewBox="0 0 121 110" fill="none" xmlns="http://www.w3.org/2000/svg">
<path d="M108.138 38.8291C107.755 32.684 105.061 26.9166 100.603 22.7002C96.1458 18.4839 90.2597 16.1354 84.1429 16.1327C83.0175 16.1326 81.8934 16.2109 80.7787 16.367C78.2426 11.4433 74.4136 7.31405 69.7083 4.42832C65.0031 1.5426 59.6017 0.0109472 54.0918 0C53.7827 0 53.4492 0.00201704 53.236 0.0201663C47.1667 0.174451 41.2879 2.18463 36.3811 5.78343C31.4743 9.38223 27.772 14.3992 25.7664 20.1672C21.5659 20.2457 17.5636 21.9792 14.6189 24.9953C11.6742 28.0114 10.0219 32.0697 10.017 36.2985C10.0174 36.9158 10.0533 37.5325 10.1246 38.1457C7.09923 39.6481 4.54944 41.9692 2.76114 44.8486C0.972843 47.728 0.0167432 51.052 4.36288e-05 54.4477C-0.00698826 57.6429 0.836126 60.7817 2.44179 63.538C2.61864 63.8404 2.87088 64.091 3.17352 64.2651C3.47617 64.4392 3.81874 64.5307 4.16732 64.5306H26.7655C27.2427 64.5306 27.7043 64.3591 28.0671 64.047C28.4299 63.7349 28.6701 63.3027 28.7444 62.8282C29.3226 59.154 31.1843 55.8079 33.9945 53.392C36.8048 50.976 40.3793 49.6486 44.075 49.6486C47.7708 49.6486 51.3453 50.976 54.1556 53.392C56.9658 55.8079 58.8275 59.154 59.4057 62.8282C59.48 63.3027 59.7202 63.7349 60.083 64.047C60.4458 64.3591 60.9074 64.5306 61.3846 64.5306H115.677C115.999 64.5308 116.317 64.4526 116.602 64.3027C116.888 64.1529 117.134 63.9358 117.318 63.6699C119.201 60.9685 120.209 57.7476 120.204 54.4477C120.191 50.868 118.999 47.3936 116.816 44.5677C114.633 41.7419 111.581 39.7238 108.138 38.8291Z" fill="#9CD5F2"/>
<path d="M64.2197 64.693C64.1828 63.9729 64.1107 63.2553 64.0038 62.5429C63.2844 57.8056 60.9666 53.4913 57.4674 50.3764C53.9682 47.2615 49.5174 45.5504 44.9157 45.551C40.314 45.5516 35.8635 47.2639 32.3651 50.3798C28.8667 53.4957 26.55 57.8105 25.8318 62.5481C25.7256 63.2588 25.6539 63.9747 25.6169 64.693C22.5615 65.8433 19.9205 67.9472 18.0535 70.7182C16.1866 73.4893 15.1845 76.7927 15.1836 80.1788C15.1836 80.7267 15.3924 81.2523 15.7642 81.6397C16.136 82.0272 16.6402 82.2449 17.1659 82.2449H72.6707C73.1964 82.2449 73.7006 82.0272 74.0724 81.6397C74.4441 81.2523 74.653 80.7267 74.653 80.1788C74.6521 76.7927 73.65 73.4893 71.783 70.7182C69.9161 67.9472 67.2751 65.8433 64.2197 64.693Z" fill="#B2EBF2"/>
<path fill-rule="evenodd" clip-rule="evenodd" d="M40.9659 65.9444C40.9001 65.6897 40.7383 65.4752 40.5086 65.3413C40.28 65.2064 40.0109 65.1691 39.7519 65.2345L33.2741 66.9624L28.9896 64.5005L33.2741 62.0376L39.7671 63.7685C40.3012 63.8903 40.8273 63.5802 40.9639 63.0636C41.0347 62.8059 40.9993 62.537 40.8647 62.3064C40.7302 62.0758 40.5157 61.9137 40.2628 61.8493L35.7153 60.6349L40.1333 58.0985C40.6017 57.8156 40.7575 57.2245 40.4864 56.7523C40.2142 56.278 39.6022 56.1129 39.1246 56.3847L34.7208 58.9192L35.9399 54.39C36.0067 54.1363 35.9672 53.8614 35.8337 53.6348C35.6981 53.4063 35.4826 53.2452 35.2266 53.1797C34.7046 53.0468 34.1613 53.361 34.0157 53.8815L32.2806 60.3218L27.9962 62.7847V57.8589L32.7369 53.1415C33.1163 52.7568 33.1153 52.1305 32.7349 51.7439C32.5467 51.5556 32.2958 51.4518 32.0287 51.4518C31.7627 51.4518 31.5128 51.5556 31.3246 51.7428L27.9962 55.0556V49.9888C27.9962 49.4441 27.548 49 26.9976 49C26.4493 49 26.0042 49.4441 26.0042 49.9888V55.0556L22.6768 51.7439C22.4886 51.5556 22.2377 51.4518 21.9706 51.4518C21.7045 51.4518 21.4536 51.5566 21.2624 51.7469C20.8841 52.1315 20.8861 52.7578 21.2665 53.1445L26.0042 57.8589V62.7847L21.7187 60.3218L19.9827 53.8755C19.838 53.359 19.2957 53.0468 18.7737 53.1797C18.2426 53.3146 17.9229 53.8594 18.0595 54.3941L19.2795 58.9202L14.8686 56.3837C14.3911 56.1129 13.7942 56.274 13.5089 56.7523C13.2368 57.2275 13.3987 57.8216 13.8782 58.1046L18.2851 60.6349L13.7467 61.8473C13.4897 61.9117 13.2732 62.0718 13.1387 62.2994C13.0031 62.5269 12.9646 62.8059 13.0334 63.0667C13.1538 63.4966 13.5484 63.7957 13.9925 63.7957C14.0765 63.7957 14.1584 63.7856 14.2535 63.7634L20.7212 62.0376L25.0097 64.5005L20.7252 66.9624L14.2495 65.2356C13.9945 65.1691 13.7163 65.2074 13.4887 65.3423C13.2631 65.4752 13.0982 65.6917 13.0375 65.9333C12.9657 66.1891 13.0001 66.4569 13.1336 66.6895C13.2661 66.9181 13.4857 67.0863 13.7376 67.1517L18.2851 68.3651L13.8721 70.8995C13.3987 71.1784 13.2378 71.7846 13.514 72.2477C13.6931 72.5589 14.0168 72.7452 14.379 72.7452C14.553 72.7452 14.724 72.7008 14.8757 72.6153L19.2836 70.0798L18.0655 74.6029C17.9947 74.8577 18.0301 75.1265 18.1647 75.3581C18.2962 75.5847 18.5076 75.7478 18.7565 75.8152C18.8425 75.8414 18.9305 75.8535 19.0266 75.8535C19.4677 75.8535 19.8633 75.5524 19.9897 75.1185L21.7197 68.6772L26.0042 66.2153V71.1411L21.2705 75.8555C20.882 76.2422 20.882 76.8705 21.2705 77.2572C21.4587 77.4444 21.7086 77.5482 21.9767 77.5482C22.2438 77.5471 22.4926 77.4444 22.6798 77.2572L26.0042 73.9454V79.0112C26.0042 79.557 26.4513 80 27.0017 80C27.55 80 27.9962 79.557 27.9962 79.0112V73.9444L31.3226 77.2551C31.5107 77.4444 31.7616 77.5482 32.0267 77.5482C32.2958 77.5482 32.5467 77.4444 32.7329 77.2572C33.1213 76.8705 33.1213 76.2422 32.7329 75.8555L27.9962 71.1411V66.2163L32.2806 68.6822L34.0136 75.1265C34.135 75.5545 34.5296 75.8535 34.9737 75.8535C35.0688 75.8535 35.1568 75.8414 35.2398 75.8163C35.4927 75.7488 35.7042 75.5867 35.8357 75.3611C35.9692 75.1326 36.0056 74.8577 35.9358 74.6059L34.7168 70.0839L39.1297 72.6183C39.2815 72.7039 39.4514 72.7482 39.6214 72.7482C39.9805 72.7482 40.3022 72.5629 40.4843 72.2518C40.7575 71.7846 40.5956 71.1764 40.1222 70.8954L35.7153 68.3651L40.2587 67.1527C40.5167 67.0853 40.7322 66.9211 40.8668 66.6895C40.9983 66.461 41.0347 66.1891 40.9659 65.9444" fill="#4FB4ED"/>
<path fill-rule="evenodd" clip-rule="evenodd" d="M82.6256 61.2419C82.5455 61.0662 82.3999 60.932 82.2147 60.8645C82.0302 60.7962 81.8283 60.8036 81.6467 60.8839L77.1157 62.9573L73.6662 61.7253L76.4973 59.4005L81.4737 59.8231C81.8805 59.8431 82.2272 59.552 82.2624 59.1616C82.282 58.9664 82.2222 58.7767 82.0947 58.6273C81.9671 58.478 81.7895 58.3882 81.5961 58.3739L78.1104 58.0764L81.0301 55.6815C81.3379 55.4175 81.3779 54.9708 81.1199 54.6643C80.8609 54.3564 80.3915 54.3152 80.0756 54.5724L77.1661 56.964L77.4909 53.5376C77.5079 53.3459 77.4445 53.1524 77.3182 53.0058C77.1901 52.858 77.0119 52.7691 76.8161 52.7544C76.4168 52.725 76.058 53.0211 76.0166 53.4156L75.5536 58.288L72.7226 60.6127L72.104 57.0552L74.9864 53.0441C75.2162 52.7179 75.1368 52.2658 74.8094 52.035C74.6479 51.923 74.451 51.88 74.2552 51.9141C74.0602 51.948 73.89 52.0547 73.7756 52.214L71.752 55.0307L71.1158 51.3714C71.0474 50.9779 70.6631 50.7144 70.2597 50.7845C69.8578 50.8544 69.5873 51.2318 69.6557 51.6252L70.292 55.2845L67.4372 53.3168C67.2757 53.2048 67.0788 53.1619 66.883 53.1959C66.688 53.2298 66.5172 53.3374 66.401 53.4992C66.1719 53.8252 66.2521 54.2773 66.5794 54.5081L70.644 57.3091L71.2625 60.8666L67.8122 59.634L65.7302 55.1996C65.5593 54.845 65.1227 54.6887 64.7568 54.8512C64.3844 55.0163 64.2185 55.4505 64.3857 55.8192L65.8484 58.9326L62.2968 57.6629C61.9128 57.5281 61.4955 57.7205 61.3465 58.1023C61.2067 58.4802 61.3999 58.8886 61.787 59.0319L65.3348 60.2977L62.1605 61.7517C61.9803 61.831 61.8417 61.9742 61.7717 62.1557C61.7009 62.3373 61.7077 62.5436 61.7909 62.7232C61.9331 63.0184 62.2599 63.1841 62.5854 63.1275C62.6469 63.1168 62.7057 63.0991 62.7727 63.071L67.2965 61.0003L70.7491 62.2325L67.9179 64.5565L62.9546 64.1347C62.7593 64.1191 62.5602 64.1822 62.4103 64.3087C62.2617 64.4334 62.168 64.6108 62.1538 64.7931C62.1333 64.9869 62.1921 65.176 62.3192 65.327C62.4451 65.4751 62.6271 65.5686 62.82 65.5838L66.3055 65.8805L63.3892 68.2733C63.0772 68.5351 63.0354 68.9934 63.296 69.2927C63.4663 69.4946 63.727 69.5878 63.9925 69.5417C64.12 69.5195 64.2398 69.4657 64.3402 69.3846L67.2527 66.9917L66.9278 70.4136C66.9079 70.6066 66.9676 70.7962 67.0953 70.9463C67.2202 71.0932 67.3957 71.1841 67.5865 71.2011C67.6529 71.209 67.7189 71.2065 67.7893 71.1943C68.1126 71.1381 68.3648 70.8702 68.403 70.5407L68.8621 65.6682L71.6933 63.3442L72.3119 66.9017L69.4343 70.9098C69.1981 71.2385 69.277 71.6923 69.6103 71.922C69.7717 72.0333 69.9679 72.0764 70.1644 72.0422C70.36 72.0075 70.5296 71.9016 70.6432 71.7424L72.664 68.927L73.3001 72.5856C73.3686 72.9797 73.752 73.2427 74.1554 73.1726C74.5573 73.1027 74.8287 72.7259 74.7602 72.3317L74.1239 68.6724L76.9778 70.6396C77.1395 70.7523 77.3364 70.7952 77.5307 70.7614C77.7279 70.7271 77.8988 70.6203 78.0117 70.4613C78.2479 70.1325 78.169 69.6787 77.8357 69.449L73.7719 66.6479L73.1535 63.0911L76.6035 64.326L78.6829 68.7593C78.8256 69.0529 79.1524 69.2186 79.4779 69.162C79.5476 69.1499 79.6106 69.1299 79.6683 69.1012C79.8452 69.0202 79.9798 68.8762 80.0479 68.6965C80.117 68.5144 80.1092 68.3113 80.0264 68.1383L78.5651 65.0278L82.1178 66.2958C82.2398 66.3383 82.37 66.3486 82.4945 66.327C82.7578 66.2812 82.9703 66.1064 83.0647 65.8585C83.2063 65.4862 83.0112 65.0676 82.6289 64.9251L79.0811 63.6592L82.2591 62.2046C82.4397 62.123 82.577 61.977 82.6465 61.7926C82.7142 61.6108 82.7068 61.4098 82.6256 61.2419" fill="#4FB4ED"/>
<path fill-rule="evenodd" clip-rule="evenodd" d="M65.9974 84.3608C65.9229 84.1978 65.7878 84.0732 65.616 84.0106C65.4448 83.9473 65.2574 83.9541 65.0888 84.0286L60.8839 85.9528L57.6827 84.8095L60.31 82.652L64.9283 83.0442C65.3059 83.0627 65.6276 82.7926 65.6603 82.4302C65.6784 82.2491 65.623 82.0731 65.5046 81.9345C65.3862 81.7958 65.2214 81.7125 65.0419 81.6993L61.8071 81.4232L64.5167 79.2007C64.8023 78.9556 64.8394 78.541 64.6 78.2566C64.3596 77.9709 63.924 77.9326 63.6309 78.1713L60.9307 80.3908L61.2321 77.211C61.248 77.0331 61.1891 76.8535 61.0718 76.7175C60.953 76.5803 60.7876 76.4978 60.6059 76.4842C60.2353 76.4569 59.9024 76.7317 59.864 77.0978L59.4343 81.6195L56.807 83.777L56.2329 80.4755L58.9079 76.753C59.1211 76.4503 59.0475 76.0307 58.7437 75.8165C58.5937 75.7126 58.411 75.6727 58.2293 75.7043C58.0483 75.7358 57.8904 75.8349 57.7842 75.9826L55.9063 78.5966L55.3158 75.2007C55.2523 74.8356 54.8957 74.5909 54.5214 74.656C54.1484 74.7209 53.8973 75.0711 53.9608 75.4363L54.5513 78.8322L51.902 77.0061C51.7521 76.9021 51.5693 76.8623 51.3876 76.8939C51.2067 76.9254 51.0482 77.0252 50.9403 77.1754C50.7278 77.4779 50.8021 77.8975 51.1059 78.1116L54.878 80.7111L55.452 84.0126L52.25 82.8687L50.3179 78.7534C50.1593 78.4243 49.754 78.2793 49.4144 78.4301C49.0689 78.5833 48.9149 78.9862 49.0701 79.3284L50.4275 82.2177L47.1315 81.0394C46.7752 80.9143 46.3879 81.0929 46.2496 81.4472C46.1199 81.7979 46.2992 82.177 46.6584 82.3099L49.9508 83.4846L47.0051 84.8339C46.8378 84.9075 46.7092 85.0404 46.6442 85.2089C46.5785 85.3774 46.5848 85.5689 46.662 85.7356C46.794 86.0095 47.0972 86.1633 47.3993 86.1108C47.4564 86.1008 47.511 86.0844 47.5731 86.0583L51.7714 84.1366L54.9755 85.2802L52.348 87.437L47.7419 87.0454C47.5608 87.031 47.376 87.0896 47.2369 87.2069C47.0989 87.3227 47.012 87.4873 46.9988 87.6565C46.9798 87.8364 47.0344 88.0118 47.1523 88.1519C47.2691 88.2894 47.438 88.3762 47.617 88.3903L50.8517 88.6657L48.1453 90.8862C47.8557 91.1292 47.817 91.5545 48.0588 91.8322C48.2169 92.0196 48.4588 92.1062 48.7051 92.0633C48.8235 92.0428 48.9346 91.9928 49.0279 91.9175L51.7307 89.6969L51.4293 92.8725C51.4108 93.0516 51.4662 93.2276 51.5847 93.3669C51.7006 93.5032 51.8634 93.5875 52.0406 93.6033C52.1021 93.6107 52.1634 93.6084 52.2288 93.597C52.5288 93.5448 52.7628 93.2963 52.7982 92.9904L53.2243 88.4687L55.8518 86.3119L56.4258 89.6134L53.7553 93.333C53.5361 93.6381 53.6094 94.0592 53.9187 94.2724C54.0685 94.3757 54.2505 94.4156 54.4329 94.3839C54.6145 94.3517 54.7718 94.2534 54.8773 94.1057L56.7526 91.4929L57.343 94.8882C57.4066 95.254 57.7623 95.498 58.1367 95.4329C58.5097 95.3681 58.7615 95.0184 58.6979 94.6526L58.1075 91.2566L60.7559 93.0822C60.906 93.1868 61.0888 93.2267 61.269 93.1953C61.4521 93.1635 61.6107 93.0643 61.7155 92.9168C61.9347 92.6117 61.8614 92.1905 61.5521 91.9773L57.7808 89.3778L57.2069 86.077L60.4086 87.223L62.3384 91.3372C62.4708 91.6097 62.7741 91.7635 63.0762 91.7109C63.1408 91.6997 63.1993 91.6812 63.2528 91.6545C63.417 91.5794 63.5419 91.4457 63.6051 91.279C63.6693 91.11 63.662 90.9215 63.5852 90.761L62.229 87.8743L65.5261 89.0511C65.6393 89.0905 65.7601 89.1001 65.8757 89.08C66.12 89.0375 66.3172 88.8753 66.4048 88.6452C66.5362 88.2997 66.3552 87.9113 66.0004 87.779L62.7079 86.6042L65.6571 85.2543C65.8248 85.1786 65.9522 85.0431 66.0167 84.8719C66.0796 84.7032 66.0727 84.5167 65.9974 84.3608" fill="#4FB4ED"/>
<path fill-rule="evenodd" clip-rule="evenodd" d="M109.997 76.3608C109.923 76.1978 109.788 76.0732 109.616 76.0106C109.445 75.9473 109.257 75.9541 109.089 76.0286L104.884 77.9528L101.683 76.8095L104.31 74.652L108.928 75.0442C109.306 75.0627 109.628 74.7926 109.66 74.4302C109.678 74.2491 109.623 74.0731 109.505 73.9345C109.386 73.7958 109.221 73.7125 109.042 73.6993L105.807 73.4232L108.517 71.2007C108.802 70.9556 108.839 70.541 108.6 70.2566C108.36 69.9709 107.924 69.9326 107.631 70.1713L104.931 72.3908L105.232 69.211C105.248 69.0331 105.189 68.8535 105.072 68.7175C104.953 68.5803 104.788 68.4978 104.606 68.4842C104.235 68.4569 103.902 68.7317 103.864 69.0978L103.434 73.6195L100.807 75.777L100.233 72.4755L102.908 68.753C103.121 68.4503 103.047 68.0307 102.744 67.8165C102.594 67.7126 102.411 67.6727 102.229 67.7043C102.048 67.7358 101.89 67.8349 101.784 67.9826L99.9063 70.5966L99.3158 67.2007C99.2523 66.8356 98.8957 66.5909 98.5214 66.656C98.1484 66.7209 97.8973 67.0711 97.9608 67.4363L98.5513 70.8322L95.902 69.0061C95.7521 68.9021 95.5693 68.8623 95.3876 68.8939C95.2067 68.9254 95.0482 69.0252 94.9403 69.1754C94.7278 69.4779 94.8021 69.8975 95.1059 70.1116L98.878 72.7111L99.452 76.0126L96.25 74.8687L94.3179 70.7534C94.1593 70.4243 93.754 70.2793 93.4144 70.4301C93.0689 70.5833 92.9149 70.9862 93.0701 71.3284L94.4275 74.2177L91.1315 73.0394C90.7752 72.9143 90.3879 73.0929 90.2496 73.4472C90.1199 73.7979 90.2992 74.177 90.6584 74.3099L93.9508 75.4846L91.0051 76.8339C90.8378 76.9075 90.7092 77.0404 90.6442 77.2089C90.5785 77.3774 90.5848 77.5689 90.662 77.7356C90.794 78.0095 91.0972 78.1633 91.3993 78.1108C91.4564 78.1008 91.511 78.0844 91.5731 78.0583L95.7714 76.1366L98.9755 77.2802L96.348 79.437L91.7419 79.0454C91.5608 79.031 91.376 79.0896 91.2369 79.2069C91.0989 79.3227 91.012 79.4873 90.9988 79.6565C90.9798 79.8364 91.0344 80.0118 91.1523 80.1519C91.2691 80.2894 91.438 80.3762 91.617 80.3903L94.8517 80.6657L92.1453 82.8862C91.8557 83.1292 91.817 83.5545 92.0588 83.8322C92.2169 84.0196 92.4588 84.1062 92.7051 84.0633C92.8235 84.0428 92.9346 83.9928 93.0279 83.9175L95.7307 81.6969L95.4293 84.8725C95.4108 85.0516 95.4662 85.2276 95.5847 85.3669C95.7006 85.5032 95.8634 85.5875 96.0406 85.6033C96.1021 85.6107 96.1634 85.6084 96.2288 85.597C96.5288 85.5448 96.7628 85.2963 96.7982 84.9904L97.2243 80.4687L99.8518 78.3119L100.426 81.6134L97.7553 85.333C97.5361 85.6381 97.6094 86.0592 97.9187 86.2724C98.0685 86.3757 98.2505 86.4156 98.4329 86.3839C98.6145 86.3517 98.7718 86.2534 98.8773 86.1057L100.753 83.4929L101.343 86.8882C101.407 87.254 101.762 87.498 102.137 87.4329C102.51 87.3681 102.762 87.0184 102.698 86.6526L102.107 83.2566L104.756 85.0822C104.906 85.1868 105.089 85.2267 105.269 85.1953C105.452 85.1635 105.611 85.0643 105.715 84.9168C105.935 84.6117 105.861 84.1905 105.552 83.9773L101.781 81.3778L101.207 78.077L104.409 79.223L106.338 83.3372C106.471 83.6097 106.774 83.7635 107.076 83.7109C107.141 83.6997 107.199 83.6812 107.253 83.6545C107.417 83.5794 107.542 83.4457 107.605 83.279C107.669 83.11 107.662 82.9215 107.585 82.761L106.229 79.8743L109.526 81.0511C109.639 81.0905 109.76 81.1001 109.876 81.08C110.12 81.0375 110.317 80.8753 110.405 80.6452C110.536 80.2997 110.355 79.9113 110 79.779L106.708 78.6042L109.657 77.2543C109.825 77.1786 109.952 77.0431 110.017 76.8719C110.08 76.7032 110.073 76.5167 109.997 76.3608" fill="#4FB4ED"/>
<path fill-rule="evenodd" clip-rule="evenodd" d="M91.9974 96.3608C91.9229 96.1978 91.7878 96.0732 91.616 96.0106C91.4448 95.9473 91.2574 95.9541 91.0888 96.0286L86.8839 97.9528L83.6827 96.8095L86.31 94.652L90.9283 95.0442C91.3059 95.0627 91.6276 94.7926 91.6603 94.4302C91.6784 94.2491 91.623 94.0731 91.5046 93.9345C91.3862 93.7958 91.2214 93.7125 91.0419 93.6993L87.8071 93.4232L90.5167 91.2007C90.8023 90.9556 90.8394 90.541 90.6 90.2566C90.3596 89.9709 89.924 89.9326 89.6309 90.1713L86.9307 92.3908L87.2321 89.211C87.248 89.0331 87.1891 88.8535 87.0718 88.7175C86.953 88.5803 86.7876 88.4978 86.6059 88.4842C86.2353 88.4569 85.9024 88.7317 85.864 89.0978L85.4343 93.6195L82.807 95.777L82.2329 92.4755L84.9079 88.753C85.1211 88.4503 85.0475 88.0307 84.7437 87.8165C84.5937 87.7126 84.411 87.6727 84.2293 87.7043C84.0483 87.7358 83.8904 87.8349 83.7842 87.9826L81.9063 90.5966L81.3158 87.2007C81.2523 86.8356 80.8957 86.5909 80.5214 86.656C80.1484 86.7209 79.8973 87.0711 79.9608 87.4363L80.5513 90.8322L77.902 89.0061C77.7521 88.9021 77.5693 88.8623 77.3876 88.8939C77.2067 88.9254 77.0482 89.0252 76.9403 89.1754C76.7278 89.4779 76.8021 89.8975 77.1059 90.1116L80.878 92.7111L81.452 96.0126L78.25 94.8687L76.3179 90.7534C76.1593 90.4243 75.754 90.2793 75.4144 90.4301C75.0689 90.5833 74.9149 90.9862 75.0701 91.3284L76.4275 94.2177L73.1315 93.0394C72.7752 92.9143 72.3879 93.0929 72.2496 93.4472C72.1199 93.7979 72.2992 94.177 72.6584 94.3099L75.9508 95.4846L73.0051 96.8339C72.8378 96.9075 72.7092 97.0404 72.6442 97.2089C72.5785 97.3774 72.5848 97.5689 72.662 97.7356C72.794 98.0095 73.0972 98.1633 73.3993 98.1108C73.4564 98.1008 73.511 98.0844 73.5731 98.0583L77.7714 96.1366L80.9755 97.2802L78.348 99.437L73.7419 99.0454C73.5608 99.031 73.376 99.0896 73.2369 99.2069C73.0989 99.3227 73.012 99.4873 72.9988 99.6565C72.9798 99.8364 73.0344 100.012 73.1523 100.152C73.2691 100.289 73.438 100.376 73.617 100.39L76.8517 100.666L74.1453 102.886C73.8557 103.129 73.817 103.554 74.0588 103.832C74.2169 104.02 74.4588 104.106 74.7051 104.063C74.8235 104.043 74.9346 103.993 75.0279 103.918L77.7307 101.697L77.4293 104.872C77.4108 105.052 77.4662 105.228 77.5847 105.367C77.7006 105.503 77.8634 105.588 78.0406 105.603C78.1021 105.611 78.1634 105.608 78.2288 105.597C78.5288 105.545 78.7628 105.296 78.7982 104.99L79.2243 100.469L81.8518 98.3119L82.4258 101.613L79.7553 105.333C79.5361 105.638 79.6094 106.059 79.9187 106.272C80.0685 106.376 80.2505 106.416 80.4329 106.384C80.6145 106.352 80.7718 106.253 80.8773 106.106L82.7526 103.493L83.343 106.888C83.4066 107.254 83.7623 107.498 84.1367 107.433C84.5097 107.368 84.7615 107.018 84.6979 106.653L84.1075 103.257L86.7559 105.082C86.906 105.187 87.0888 105.227 87.269 105.195C87.4521 105.163 87.6107 105.064 87.7155 104.917C87.9347 104.612 87.8614 104.191 87.5521 103.977L83.7808 101.378L83.2069 98.077L86.4086 99.223L88.3384 103.337C88.4708 103.61 88.7741 103.763 89.0762 103.711C89.1408 103.7 89.1993 103.681 89.2528 103.655C89.417 103.579 89.5419 103.446 89.6051 103.279C89.6693 103.11 89.662 102.921 89.5852 102.761L88.229 99.8743L91.5261 101.051C91.6393 101.09 91.7601 101.1 91.8757 101.08C92.12 101.037 92.3172 100.875 92.4048 100.645C92.5362 100.3 92.3552 99.9113 92.0004 99.779L88.7079 98.6042L91.6571 97.2543C91.8248 97.1786 91.9522 97.0431 92.0167 96.8719C92.0796 96.7032 92.0727 96.5167 91.9974 96.3608" fill="#4FB4ED"/>
<path fill-rule="evenodd" clip-rule="evenodd" d="M38.9974 93.3608C38.9229 93.1978 38.7878 93.0732 38.616 93.0106C38.4448 92.9473 38.2574 92.9541 38.0888 93.0286L33.8839 94.9528L30.6827 93.8095L33.31 91.652L37.9283 92.0442C38.3059 92.0627 38.6276 91.7926 38.6603 91.4302C38.6784 91.2491 38.623 91.0731 38.5046 90.9345C38.3862 90.7958 38.2214 90.7125 38.0419 90.6993L34.8071 90.4232L37.5167 88.2007C37.8023 87.9556 37.8394 87.541 37.6 87.2566C37.3596 86.9709 36.924 86.9326 36.6309 87.1713L33.9307 89.3908L34.2321 86.211C34.248 86.0331 34.1891 85.8535 34.0718 85.7175C33.953 85.5803 33.7876 85.4978 33.6059 85.4842C33.2353 85.4569 32.9024 85.7317 32.864 86.0978L32.4343 90.6195L29.807 92.777L29.2329 89.4755L31.9079 85.753C32.1211 85.4503 32.0475 85.0307 31.7437 84.8165C31.5937 84.7126 31.411 84.6727 31.2293 84.7043C31.0483 84.7358 30.8904 84.8349 30.7842 84.9826L28.9063 87.5966L28.3158 84.2007C28.2523 83.8356 27.8957 83.5909 27.5214 83.656C27.1484 83.7209 26.8973 84.0711 26.9608 84.4363L27.5513 87.8322L24.902 86.0061C24.7521 85.9021 24.5693 85.8623 24.3876 85.8939C24.2067 85.9254 24.0482 86.0252 23.9403 86.1754C23.7278 86.4779 23.8021 86.8975 24.1059 87.1116L27.878 89.7111L28.452 93.0126L25.25 91.8687L23.3179 87.7534C23.1593 87.4243 22.754 87.2793 22.4144 87.4301C22.0689 87.5833 21.9149 87.9862 22.0701 88.3284L23.4275 91.2177L20.1315 90.0394C19.7752 89.9143 19.3879 90.0929 19.2496 90.4472C19.1199 90.7979 19.2992 91.177 19.6584 91.3099L22.9508 92.4846L20.0051 93.8339C19.8378 93.9075 19.7092 94.0404 19.6442 94.2089C19.5785 94.3774 19.5848 94.5689 19.662 94.7356C19.794 95.0095 20.0972 95.1633 20.3993 95.1108C20.4564 95.1008 20.511 95.0844 20.5731 95.0583L24.7714 93.1366L27.9755 94.2802L25.348 96.437L20.7419 96.0454C20.5608 96.031 20.376 96.0896 20.2369 96.2069C20.0989 96.3227 20.012 96.4873 19.9988 96.6565C19.9798 96.8364 20.0344 97.0118 20.1523 97.1519C20.2691 97.2894 20.438 97.3762 20.617 97.3903L23.8517 97.6657L21.1453 99.8862C20.8557 100.129 20.817 100.554 21.0588 100.832C21.2169 101.02 21.4588 101.106 21.7051 101.063C21.8235 101.043 21.9346 100.993 22.0279 100.918L24.7307 98.6969L24.4293 101.872C24.4108 102.052 24.4662 102.228 24.5847 102.367C24.7006 102.503 24.8634 102.588 25.0406 102.603C25.1021 102.611 25.1634 102.608 25.2288 102.597C25.5288 102.545 25.7628 102.296 25.7982 101.99L26.2243 97.4687L28.8518 95.3119L29.4258 98.6134L26.7553 102.333C26.5361 102.638 26.6094 103.059 26.9187 103.272C27.0685 103.376 27.2505 103.416 27.4329 103.384C27.6145 103.352 27.7718 103.253 27.8773 103.106L29.7526 100.493L30.343 103.888C30.4066 104.254 30.7623 104.498 31.1367 104.433C31.5097 104.368 31.7615 104.018 31.6979 103.653L31.1075 100.257L33.7559 102.082C33.906 102.187 34.0888 102.227 34.269 102.195C34.4521 102.163 34.6107 102.064 34.7155 101.917C34.9347 101.612 34.8614 101.191 34.5521 100.977L30.7808 98.3778L30.2069 95.077L33.4086 96.223L35.3384 100.337C35.4708 100.61 35.7741 100.763 36.0762 100.711C36.1408 100.7 36.1993 100.681 36.2528 100.655C36.417 100.579 36.5419 100.446 36.6051 100.279C36.6693 100.11 36.662 99.9215 36.5852 99.761L35.229 96.8743L38.5261 98.0511C38.6393 98.0905 38.7601 98.1001 38.8757 98.08C39.12 98.0375 39.3172 97.8753 39.4048 97.6452C39.5362 97.2997 39.3552 96.9113 39.0004 96.779L35.7079 95.6042L38.6571 94.2543C38.8248 94.1786 38.9522 94.0431 39.0167 93.8719C39.0796 93.7032 39.0727 93.5167 38.9974 93.3608" fill="#4FB4ED"/>
</svg>
