<svg width="100" height="100" viewBox="0 0 100 100" fill="none" xmlns="http://www.w3.org/2000/svg">
<g clip-path="url(#clip0_274_1632)">
<rect opacity="0.0229128" x="0.5" y="0.5" width="99" height="99" stroke="#2B2B2B"/>
<g clip-path="url(#clip1_274_1632)">
<path fill-rule="evenodd" clip-rule="evenodd" d="M28.3457 65.8844H42.3734L41.633 63.8234C40.2947 60.0978 39.0798 56.7217 38.6968 55.6646C38.0585 53.8998 38.033 52.5272 38.6266 51.7003C39.1117 51.0225 39.8819 50.8818 40.0606 50.8818H44.3074C46.9691 50.8818 48.5947 53.5396 49.1755 55.8138C49.3564 56.5235 49.567 57.3398 49.7968 58.2328C50.7223 61.822 51.9904 66.739 52.8713 70.5733C53.4947 73.2865 52.8798 74.4225 52.5862 74.7849C52.3138 75.1216 51.9351 75.2836 51.4266 75.2836H36.8287L41.9393 89.879C42.1755 90.5504 42.1393 90.9213 42.0968 91.0385C41.9032 91.0662 41.2074 90.9063 40.5798 90.0048C37.6074 85.7314 30.1159 74.6804 26.8457 69.6483C26.0542 68.4292 25.8032 67.4253 26.1393 66.82C26.4457 66.2701 27.3521 65.8844 28.3457 65.8844" fill="#F9C900"/>
<path fill-rule="evenodd" clip-rule="evenodd" d="M88.0729 33.89C94.2006 33.89 99.1857 38.9498 99.1857 45.1734C99.1857 51.3926 94.2006 56.4524 88.0729 56.4524H39.7559C32.0665 56.4524 25.8091 50.0989 25.8091 42.2896C25.8091 34.4804 32.0665 28.1269 39.7559 28.1269C41.1878 28.1269 42.6112 28.3507 43.9814 28.7919L44.8772 29.0796L45.1921 28.1823C48.1453 19.7528 56.0367 14.0898 64.8282 14.0898C75.5772 14.0898 84.4984 22.2657 85.5814 33.11L85.6814 34.1138L86.6687 33.9902C87.2133 33.922 87.6601 33.89 88.0729 33.89" fill="#D6E3F2"/>
<path fill-rule="evenodd" clip-rule="evenodd" d="M12.2764 31.6774C5.50827 31.6774 -0.000244141 37.2488 -0.000244141 44.0989C-0.000244141 50.9448 5.50827 56.5182 12.2764 56.5182H65.6529C74.1508 56.5182 81.0615 49.5232 81.0615 40.9253C81.0615 32.3275 74.1508 25.3324 65.6529 25.3324C64.0721 25.3324 62.4998 25.5797 60.9849 26.0635L59.9976 26.381L59.6487 25.3921C56.387 16.1122 47.6678 9.87805 37.9551 9.87805C26.0806 9.87805 16.2253 18.8808 15.0295 30.8185L14.9189 31.9247L13.8295 31.7883C13.2253 31.7115 12.7317 31.6774 12.2764 31.6774" fill="#BAC6D1"/>
<path d="M77.0004 75.0033V80.9972C77.0004 81.3568 77.1862 81.6889 77.4876 81.8685L82.513 84.8653C82.8144 85.0449 83.1856 85.0449 83.4874 84.8653L88.5128 81.8685C88.8142 81.6889 89 81.3564 89 80.9972V75.0033C89 74.6436 88.8142 74.3115 88.5128 74.1319L83.487 71.1347C83.1856 70.9551 82.8144 70.9551 82.5126 71.1347L77.4872 74.1315C77.1858 74.3111 77 74.6436 77 75.0028L77.0004 75.0033Z" fill="#38A1E8"/>
<path d="M10.0004 70.0033V75.9972C10.0004 76.3568 10.1862 76.6889 10.4876 76.8685L15.513 79.8653C15.8144 80.0449 16.1856 80.0449 16.4874 79.8653L21.5128 76.8685C21.8142 76.6889 22 76.3564 22 75.9972V70.0033C22 69.6436 21.8142 69.3115 21.5128 69.1319L16.487 66.1347C16.1856 65.9551 15.8144 65.9551 15.5126 66.1347L10.4872 69.1315C10.1858 69.3111 10 69.6436 10 70.0028L10.0004 70.0033Z" fill="#38A1E8"/>
<path d="M60.0004 63.0033V68.9972C60.0004 69.3568 60.1862 69.6889 60.4876 69.8685L65.513 72.8653C65.8144 73.0449 66.1856 73.0449 66.4874 72.8653L71.5128 69.8685C71.8142 69.6889 72 69.3564 72 68.9972V63.0033C72 62.6436 71.8142 62.3115 71.5128 62.1319L66.487 59.1347C66.1856 58.9551 65.8144 58.9551 65.5126 59.1347L60.4872 62.1315C60.1858 62.3111 60 62.6436 60 63.0028L60.0004 63.0033Z" fill="#38A1E8"/>
</g>
</g>
<defs>
<clipPath id="clip0_274_1632">
<rect width="100" height="100" fill="white"/>
</clipPath>
<clipPath id="clip1_274_1632">
<rect width="100" height="83" fill="white" transform="translate(0 9)"/>
</clipPath>
</defs>
</svg>
