<svg width="324" height="320" viewBox="0 0 324 320" fill="none" xmlns="http://www.w3.org/2000/svg">
<circle cx="160" cy="160" r="160" fill="#F0D387"/>
<path d="M79.3438 147.281L72.5469 167H68.4375L77 144.25H79.625L79.3438 147.281ZM85.0312 167L78.2188 147.281L77.9219 144.25H80.5625L89.1562 167H85.0312ZM84.7031 158.562V161.672H72.3281V158.562H84.7031ZM95.3125 153.531V167H91.5469V150.094H95.0938L95.3125 153.531ZM94.7031 157.922L93.4219 157.906C93.4219 156.74 93.5677 155.661 93.8594 154.672C94.151 153.682 94.5781 152.823 95.1406 152.094C95.7031 151.354 96.401 150.786 97.2344 150.391C98.0781 149.984 99.0521 149.781 100.156 149.781C100.927 149.781 101.63 149.896 102.266 150.125C102.911 150.344 103.469 150.693 103.938 151.172C104.417 151.651 104.781 152.266 105.031 153.016C105.292 153.766 105.422 154.672 105.422 155.734V167H101.656V156.062C101.656 155.24 101.531 154.594 101.281 154.125C101.042 153.656 100.693 153.323 100.234 153.125C99.7865 152.917 99.25 152.812 98.625 152.812C97.9167 152.812 97.3125 152.948 96.8125 153.219C96.3229 153.49 95.9219 153.859 95.6094 154.328C95.2969 154.797 95.0677 155.339 94.9219 155.953C94.776 156.568 94.7031 157.224 94.7031 157.922ZM105.188 156.922L103.422 157.312C103.422 156.292 103.562 155.328 103.844 154.422C104.135 153.505 104.557 152.703 105.109 152.016C105.672 151.318 106.365 150.771 107.188 150.375C108.01 149.979 108.953 149.781 110.016 149.781C110.88 149.781 111.651 149.901 112.328 150.141C113.016 150.37 113.599 150.734 114.078 151.234C114.557 151.734 114.922 152.385 115.172 153.188C115.422 153.979 115.547 154.938 115.547 156.062V167H111.766V156.047C111.766 155.193 111.641 154.531 111.391 154.062C111.151 153.594 110.807 153.271 110.359 153.094C109.911 152.906 109.375 152.812 108.75 152.812C108.167 152.812 107.651 152.922 107.203 153.141C106.766 153.349 106.396 153.646 106.094 154.031C105.792 154.406 105.562 154.839 105.406 155.328C105.26 155.818 105.188 156.349 105.188 156.922ZM132.953 144.25V167H129.031V144.25H132.953ZM146.797 144.25H154.844C156.573 144.25 158.047 144.51 159.266 145.031C160.484 145.552 161.417 146.323 162.062 147.344C162.719 148.354 163.047 149.604 163.047 151.094C163.047 152.229 162.839 153.229 162.422 154.094C162.005 154.958 161.417 155.688 160.656 156.281C159.896 156.865 158.99 157.318 157.938 157.641L156.75 158.219H149.516L149.484 155.109H154.906C155.844 155.109 156.625 154.943 157.25 154.609C157.875 154.276 158.344 153.823 158.656 153.25C158.979 152.667 159.141 152.01 159.141 151.281C159.141 150.49 158.984 149.802 158.672 149.219C158.37 148.625 157.901 148.172 157.266 147.859C156.63 147.536 155.823 147.375 154.844 147.375H150.719V167H146.797V144.25ZM159.781 167L154.438 156.781L158.547 156.766L163.969 166.797V167H159.781ZM174.531 167.312C173.281 167.312 172.151 167.109 171.141 166.703C170.141 166.286 169.286 165.708 168.578 164.969C167.88 164.229 167.344 163.359 166.969 162.359C166.594 161.359 166.406 160.281 166.406 159.125V158.5C166.406 157.177 166.599 155.979 166.984 154.906C167.37 153.833 167.906 152.917 168.594 152.156C169.281 151.385 170.094 150.797 171.031 150.391C171.969 149.984 172.984 149.781 174.078 149.781C175.286 149.781 176.344 149.984 177.25 150.391C178.156 150.797 178.906 151.37 179.5 152.109C180.104 152.839 180.552 153.708 180.844 154.719C181.146 155.729 181.297 156.844 181.297 158.062V159.672H168.234V156.969H177.578V156.672C177.557 155.995 177.422 155.359 177.172 154.766C176.932 154.172 176.562 153.693 176.062 153.328C175.562 152.964 174.896 152.781 174.062 152.781C173.438 152.781 172.88 152.917 172.391 153.188C171.911 153.448 171.51 153.828 171.188 154.328C170.865 154.828 170.615 155.432 170.438 156.141C170.271 156.839 170.188 157.625 170.188 158.5V159.125C170.188 159.865 170.286 160.552 170.484 161.188C170.693 161.812 170.995 162.359 171.391 162.828C171.786 163.297 172.266 163.667 172.828 163.938C173.391 164.198 174.031 164.328 174.75 164.328C175.656 164.328 176.464 164.146 177.172 163.781C177.88 163.417 178.495 162.901 179.016 162.234L181 164.156C180.635 164.688 180.161 165.198 179.578 165.688C178.995 166.167 178.281 166.557 177.438 166.859C176.604 167.161 175.635 167.312 174.531 167.312ZM194.266 163.609V155.547C194.266 154.943 194.156 154.422 193.938 153.984C193.719 153.547 193.385 153.208 192.938 152.969C192.5 152.729 191.948 152.609 191.281 152.609C190.667 152.609 190.135 152.714 189.688 152.922C189.24 153.13 188.891 153.411 188.641 153.766C188.391 154.12 188.266 154.521 188.266 154.969H184.516C184.516 154.302 184.677 153.656 185 153.031C185.323 152.406 185.792 151.849 186.406 151.359C187.021 150.87 187.755 150.484 188.609 150.203C189.464 149.922 190.422 149.781 191.484 149.781C192.755 149.781 193.88 149.995 194.859 150.422C195.849 150.849 196.625 151.495 197.188 152.359C197.76 153.214 198.047 154.286 198.047 155.578V163.094C198.047 163.865 198.099 164.557 198.203 165.172C198.318 165.776 198.479 166.302 198.688 166.75V167H194.828C194.651 166.594 194.51 166.078 194.406 165.453C194.312 164.818 194.266 164.203 194.266 163.609ZM194.812 156.719L194.844 159.047H192.141C191.443 159.047 190.828 159.115 190.297 159.25C189.766 159.375 189.323 159.562 188.969 159.812C188.615 160.062 188.349 160.365 188.172 160.719C187.995 161.073 187.906 161.474 187.906 161.922C187.906 162.37 188.01 162.781 188.219 163.156C188.427 163.521 188.729 163.807 189.125 164.016C189.531 164.224 190.021 164.328 190.594 164.328C191.365 164.328 192.036 164.172 192.609 163.859C193.193 163.536 193.651 163.146 193.984 162.688C194.318 162.219 194.495 161.776 194.516 161.359L195.734 163.031C195.609 163.458 195.396 163.917 195.094 164.406C194.792 164.896 194.396 165.365 193.906 165.812C193.427 166.25 192.849 166.609 192.172 166.891C191.505 167.172 190.734 167.312 189.859 167.312C188.755 167.312 187.771 167.094 186.906 166.656C186.042 166.208 185.365 165.609 184.875 164.859C184.385 164.099 184.141 163.24 184.141 162.281C184.141 161.385 184.307 160.594 184.641 159.906C184.984 159.208 185.484 158.625 186.141 158.156C186.807 157.688 187.62 157.333 188.578 157.094C189.536 156.844 190.63 156.719 191.859 156.719H194.812ZM212.797 163.5V143H216.578V167H213.156L212.797 163.5ZM201.797 158.734V158.406C201.797 157.125 201.948 155.958 202.25 154.906C202.552 153.844 202.99 152.932 203.562 152.172C204.135 151.401 204.833 150.812 205.656 150.406C206.479 149.99 207.406 149.781 208.438 149.781C209.458 149.781 210.354 149.979 211.125 150.375C211.896 150.771 212.552 151.339 213.094 152.078C213.635 152.807 214.068 153.682 214.391 154.703C214.714 155.714 214.943 156.839 215.078 158.078V159.125C214.943 160.333 214.714 161.438 214.391 162.438C214.068 163.438 213.635 164.302 213.094 165.031C212.552 165.76 211.891 166.323 211.109 166.719C210.339 167.115 209.438 167.312 208.406 167.312C207.385 167.312 206.464 167.099 205.641 166.672C204.828 166.245 204.135 165.646 203.562 164.875C202.99 164.104 202.552 163.198 202.25 162.156C201.948 161.104 201.797 159.964 201.797 158.734ZM205.562 158.406V158.734C205.562 159.505 205.63 160.224 205.766 160.891C205.911 161.557 206.135 162.146 206.438 162.656C206.74 163.156 207.13 163.552 207.609 163.844C208.099 164.125 208.682 164.266 209.359 164.266C210.214 164.266 210.917 164.078 211.469 163.703C212.021 163.328 212.453 162.823 212.766 162.188C213.089 161.542 213.307 160.823 213.422 160.031V157.203C213.359 156.589 213.229 156.016 213.031 155.484C212.844 154.953 212.589 154.49 212.266 154.094C211.943 153.688 211.542 153.375 211.062 153.156C210.594 152.927 210.036 152.812 209.391 152.812C208.703 152.812 208.12 152.958 207.641 153.25C207.161 153.542 206.766 153.943 206.453 154.453C206.151 154.964 205.927 155.557 205.781 156.234C205.635 156.911 205.562 157.635 205.562 158.406ZM225.922 165.156L230.516 150.094H234.547L227.766 169.578C227.609 169.995 227.406 170.448 227.156 170.938C226.906 171.427 226.578 171.891 226.172 172.328C225.776 172.776 225.281 173.135 224.688 173.406C224.094 173.688 223.375 173.828 222.531 173.828C222.198 173.828 221.875 173.797 221.562 173.734C221.26 173.682 220.974 173.625 220.703 173.562L220.688 170.688C220.792 170.698 220.917 170.708 221.062 170.719C221.219 170.729 221.344 170.734 221.438 170.734C222.062 170.734 222.583 170.656 223 170.5C223.417 170.354 223.755 170.115 224.016 169.781C224.286 169.448 224.516 169 224.703 168.438L225.922 165.156ZM223.328 150.094L227.344 162.75L228.016 166.719L225.406 167.391L219.266 150.094H223.328ZM244.25 160.297H240.766C240.776 159.328 240.859 158.516 241.016 157.859C241.172 157.193 241.432 156.589 241.797 156.047C242.172 155.505 242.667 154.932 243.281 154.328C243.76 153.87 244.193 153.438 244.578 153.031C244.964 152.615 245.271 152.177 245.5 151.719C245.729 151.25 245.844 150.714 245.844 150.109C245.844 149.453 245.734 148.896 245.516 148.438C245.297 147.979 244.974 147.63 244.547 147.391C244.13 147.151 243.609 147.031 242.984 147.031C242.464 147.031 241.974 147.135 241.516 147.344C241.057 147.542 240.688 147.854 240.406 148.281C240.125 148.698 239.974 149.25 239.953 149.938H236.188C236.208 148.625 236.521 147.521 237.125 146.625C237.729 145.729 238.542 145.057 239.562 144.609C240.583 144.161 241.724 143.938 242.984 143.938C244.38 143.938 245.573 144.177 246.562 144.656C247.552 145.125 248.307 145.812 248.828 146.719C249.359 147.615 249.625 148.698 249.625 149.969C249.625 150.885 249.443 151.719 249.078 152.469C248.714 153.208 248.24 153.901 247.656 154.547C247.073 155.182 246.443 155.818 245.766 156.453C245.182 156.984 244.786 157.562 244.578 158.188C244.37 158.802 244.26 159.505 244.25 160.297ZM240.453 165.172C240.453 164.609 240.646 164.135 241.031 163.75C241.417 163.354 241.943 163.156 242.609 163.156C243.276 163.156 243.802 163.354 244.188 163.75C244.573 164.135 244.766 164.609 244.766 165.172C244.766 165.734 244.573 166.214 244.188 166.609C243.802 166.995 243.276 167.188 242.609 167.188C241.943 167.188 241.417 166.995 241.031 166.609C240.646 166.214 240.453 165.734 240.453 165.172Z" fill="black"/>
<circle cx="276" cy="226" r="48" fill="white"/>
<path d="M272.938 231.791L266.75 225.602L268.812 223.54L272.938 227.664L281.186 219.414L283.25 221.478L272.938 231.791Z" fill="#F0D387"/>
<path fill-rule="evenodd" clip-rule="evenodd" d="M259.458 225.5C259.458 216.641 266.641 209.458 275.5 209.458C284.359 209.458 291.542 216.641 291.542 225.5C291.542 234.359 284.359 241.542 275.5 241.542C266.641 241.542 259.458 234.359 259.458 225.5ZM275.5 238.625C273.776 238.625 272.07 238.285 270.477 237.626C268.885 236.966 267.438 236 266.219 234.781C265 233.562 264.034 232.115 263.374 230.523C262.715 228.93 262.375 227.224 262.375 225.5C262.375 223.776 262.715 222.07 263.374 220.477C264.034 218.885 265 217.438 266.219 216.219C267.438 215 268.885 214.034 270.477 213.374C272.07 212.714 273.776 212.375 275.5 212.375C278.981 212.375 282.319 213.758 284.781 216.219C287.242 218.681 288.625 222.019 288.625 225.5C288.625 228.981 287.242 232.319 284.781 234.781C282.319 237.242 278.981 238.625 275.5 238.625Z" fill="#F0D387"/>
</svg>
